<svg
    xmlns="http://www.w3.org/2000/svg" viewBox="0 0 399.82 31.27">
    <path fill='#fff' d="M202,276.39h8.76l9.63,29.68h-7l-2-6.6H200.56l-2,6.6h-6.31Zm0,18.31h7.85L206,281.87Z" transform="translate(-192.22 -275.26)"/>
    <path fill='#fff' d="M220.86,295.48v-.33c0-7,5-11.29,11.21-11.29,5,0,9.67,2.2,10.21,8.43h-5.69a4,4,0,0,0-4.4-3.69c-3.11,0-5.19,2.32-5.19,6.48v.33c0,4.36,2,6.6,5.31,6.6a4.4,4.4,0,0,0,4.65-4.19h5.44c-.33,5.15-4.07,8.72-10.38,8.72S220.86,302.58,220.86,295.48Z" transform="translate(-192.22 -275.26)"/>
    <path fill='#fff' d="M243.78,295.48v-.33c0-7,5-11.29,11.21-11.29,5,0,9.67,2.2,10.21,8.43h-5.69a4,4,0,0,0-4.4-3.69c-3.11,0-5.19,2.32-5.19,6.48v.33c0,4.36,2,6.6,5.31,6.6a4.4,4.4,0,0,0,4.65-4.19h5.44c-.33,5.15-4.07,8.72-10.38,8.72S243.78,302.58,243.78,295.48Z" transform="translate(-192.22 -275.26)"/>
    <path fill='#fff' d="M266.71,295.48v-.33c0-6.85,4.86-11.29,11.17-11.29,5.6,0,10.59,3.28,10.59,11v1.66H272.81c.17,3.61,2.12,5.69,5.4,5.69,2.78,0,4.15-1.2,4.52-3h5.69c-.71,4.69-4.44,7.31-10.38,7.31C271.48,306.53,266.71,302.42,266.71,295.48Zm15.9-2.62c-.21-3.28-1.87-4.86-4.73-4.86-2.7,0-4.52,1.78-5,4.86Z" transform="translate(-192.22 -275.26)"/>
    <path fill='#fff' d="M291.37,284.36h6v3.45a7.5,7.5,0,0,1,7.06-3.94c4.28,0,7.31,2.57,7.31,8.39v13.82h-6v-13c0-2.95-1.16-4.36-3.82-4.36s-4.52,1.58-4.52,4.77v12.54h-6Z" transform="translate(-192.22 -275.26)"/>
    <path fill='#fff' d="M316.63,299.64v-11h-2.78v-4.28h2.78v-4.69h6v4.69h4.57v4.28h-4.57V299.1c0,1.74.87,2.57,2.41,2.57a5.61,5.61,0,0,0,2.28-.41v4.65a10.94,10.94,0,0,1-3.65.58C319.08,306.49,316.63,304.16,316.63,299.64Z" transform="translate(-192.22 -275.26)"/>
    <path fill='#fff' d="M329.56,298.35v-14h6v13.16c0,2.95,1.2,4.36,3.78,4.36s4.53-1.58,4.53-4.77V284.36h6v21.71h-6v-3.4c-1.12,2.2-3.32,3.86-6.89,3.86C332.71,306.53,329.56,304,329.56,298.35Z" transform="translate(-192.22 -275.26)"/>
    <path fill='#fff' d="M353.82,284.36h6v4.15a7.13,7.13,0,0,1,7-4.48v5.6c-4.44,0-7,1.41-7,5.56v10.88h-6Z" transform="translate(-192.22 -275.26)"/>
    <path fill='#fff' d="M367.85,295.48v-.33c0-6.85,4.86-11.29,11.17-11.29,5.6,0,10.59,3.28,10.59,11v1.66H374c.17,3.61,2.12,5.69,5.4,5.69,2.78,0,4.15-1.2,4.52-3h5.69c-.71,4.69-4.44,7.31-10.38,7.31C372.62,306.53,367.85,302.42,367.85,295.48Zm15.9-2.62c-.21-3.28-1.87-4.86-4.73-4.86-2.7,0-4.53,1.78-5,4.86Z" transform="translate(-192.22 -275.26)"/>
    <path fill='#c8b3c5' d="M401.81,276.38h3.61v29.68h-3.61Z" transform="translate(-192.22 -275.26)"/>
    <path fill='#c8b3c5' d="M411.91,284.35h3.44v3.45c1-2,3.4-3.82,7-3.82,4.48,0,7.64,2.45,7.64,8.76v13.33h-3.44V292.49c0-3.82-1.62-5.52-5.11-5.52-3.2,0-6.06,2-6.06,5.94v13.16h-3.44Z" transform="translate(-192.22 -275.26)"/>
    <path fill='#c8b3c5' d="M436.14,300.62V287.26H433v-2.91h3.11v-4.94h3.45v4.94h5.06v2.91h-5.06v13c0,2.12,1,3.16,2.7,3.16a7.07,7.07,0,0,0,2.66-.46v2.91a8.19,8.19,0,0,1-2.95.46C438,306.35,436.14,304,436.14,300.62Z" transform="translate(-192.22 -275.26)"/>
    <path fill='#c8b3c5' d="M446.95,295.43v-.33c0-6.56,4.19-11.13,10.17-11.13,5,0,9.76,3,9.76,10.79v1.12H450.52c.17,4.94,2.53,7.68,7,7.68,3.36,0,5.31-1.25,5.77-3.78h3.45c-.75,4.36-4.36,6.64-9.26,6.64C451.31,306.44,446.95,302.12,446.95,295.43Zm16.4-2.32c-.33-4.48-2.66-6.27-6.23-6.27s-5.89,2.41-6.48,6.27Z" transform="translate(-192.22 -275.26)"/>
    <path fill='#c8b3c5' d="M471.43,284.35h3.44v3.9A7.58,7.58,0,0,1,482,284v3.24c-4.36.21-7.14,1.58-7.14,6.93v11.91h-3.44Z" transform="translate(-192.22 -275.26)"/>
    <path fill='#c8b3c5' d="M484,300c0-5,5.31-6.72,10.88-6.72H498v-1.58c0-3.45-1.33-4.9-4.65-4.9-3,0-4.65,1.25-5,3.9h-3.45c.46-4.94,4.4-6.77,8.59-6.77s7.93,1.7,7.93,7.76v14.32H498v-2.74a7.83,7.83,0,0,1-6.77,3.11C487.23,306.44,484,304.48,484,300Zm14-1.58v-2.7h-3c-4.36,0-7.56,1.08-7.56,4.28,0,2.24,1.08,3.65,4.11,3.65C495.24,303.69,498,301.83,498,298.46Z" transform="translate(-192.22 -275.26)"/>
    <path fill='#c8b3c5' d="M505.75,295.43v-.33c0-6.64,4.73-11.13,10.55-11.13,4.52,0,8.76,2.08,9.42,7.6h-3.4c-.54-3.45-3-4.73-6-4.73-3.95,0-7,3.16-7,8.26v.33c0,5.31,2.91,8.14,7.1,8.14,3.07,0,5.85-1.78,6.23-5.31h3.2c-.46,4.69-4.23,8.18-9.47,8.18C510.32,306.44,505.75,302.16,505.75,295.43Z" transform="translate(-192.22 -275.26)"/>
    <path fill='#c8b3c5' d="M531,300.62V287.26h-3.11v-2.91H531v-4.94h3.45v4.94h5.07v2.91h-5.07v13c0,2.12,1,3.16,2.7,3.16a7.08,7.08,0,0,0,2.66-.46v2.91a8.21,8.21,0,0,1-2.95.46C532.9,306.35,531,304,531,300.62Z" transform="translate(-192.22 -275.26)"/>
    <path fill='#c8b3c5' d="M543,277.54a2.28,2.28,0,1,1,2.28,2.28A2.3,2.3,0,0,1,543,277.54Zm.62,6.81h3.45v21.71h-3.45Z" transform="translate(-192.22 -275.26)"/>
    <path fill='#c8b3c5' d="M550.65,284.35h3.74l6.43,18.22,6.35-18.22h3.57l-7.8,21.71h-4.4Z" transform="translate(-192.22 -275.26)"/>
    <path fill='#c8b3c5' d="M572.11,295.43v-.33c0-6.56,4.19-11.13,10.17-11.13,5,0,9.75,3,9.75,10.79v1.12H575.68c.17,4.94,2.53,7.68,7,7.68,3.36,0,5.31-1.25,5.77-3.78h3.45c-.75,4.36-4.36,6.64-9.26,6.64C576.47,306.44,572.11,302.12,572.11,295.43Zm16.4-2.32c-.33-4.48-2.66-6.27-6.23-6.27s-5.9,2.41-6.48,6.27Z" transform="translate(-192.22 -275.26)"/>
</svg>
