<svg xmlns="http://www.w3.org/2000/svg" height="49.52" width="377.947"><g fill="#fff"><path d="M0 49.52h49.52V-.001H0V49.52" fill-opacity="0"/><path d="M41.194 29.701L19.815 8.322h21.379zm-.095 6.64c0-1.496-1.05-2.156-2.435-2.156h-2.722v7.007h1.821v-2.694h.018l1.72 2.694h2.268l-2.203-2.871c.994-.177 1.533-1.014 1.533-1.98zm-1.896.111c0 .763-.669.874-1.263.874h-.177V35.58h.177c.594 0 1.263.111 1.263.873zm-5.005-.725v-1.542h-4.393v7.007h4.393V39.65h-2.57v-1.208h2.459v-1.543h-2.46v-1.172zm-7.871-1.576v3.812c0 .91-.102 1.903-1.218 1.903-1.116 0-1.218-.993-1.218-1.903V34.15h-1.736v4.062c0 .9.036 1.794.7 2.471.557.577 1.475.781 2.254.781.778 0 1.696-.204 2.255-.78.663-.678.699-1.571.699-2.472V34.15zm-4.925 7.04l-2.558-7.006h-1.99l-2.614 7.007h1.932l.485-1.218h2.348l.454 1.218zm-2.77-2.61h-1.595l.773-2.393h.06zm-6.396-1.143c.567-.288 1.016-.8 1.016-1.431 0-1.339-.837-1.822-2.083-1.822H8.323v7.007h2.807c1.282 0 2.537-.482 2.537-1.952 0-.975-.427-1.654-1.431-1.784zm-.658-1.181c-.004.595-.39.702-.984.678h-.45V35.58h.376c.688 0 1.063-.013 1.058.678zm.25 2.798c0 .771-.482.769-1.45.744h-.233v-1.506h.186c.887 0 1.497-.06 1.497.762zM45.217 4.302H4.304v40.913h40.913zM0-.001h49.52V49.52H0zM358.847 13.98l-7.11 16.186h14.222zm-9.18 20.752l-4.566 10.03h-5.358l19.104-41.714 19.106 41.713h-5.361l-4.564-10.03zm-14.754 10.03h-4.988V4.746h4.988zm-38.474-4.566h1.752c2.546 0 4.969-.255 7.27-.768 2.299-.513 4.315-1.372 6.05-2.574 1.733-1.202 3.113-2.794 4.14-4.778 1.025-1.98 1.538-4.422 1.538-7.322 0-2.901-.513-5.342-1.538-7.324-1.027-1.981-2.407-3.573-4.14-4.776-1.735-1.203-3.751-2.06-6.05-2.574-2.301-.513-4.724-.77-7.27-.77h-1.752zm-4.988-35.45h8.278c3.076 0 5.97.407 8.676 1.22 2.707.815 5.086 2.044 7.138 3.689 2.052 1.645 3.67 3.707 4.857 6.182 1.184 2.478 1.779 5.38 1.779 8.704 0 3.397-.586 6.369-1.754 8.915-1.166 2.549-2.768 4.653-4.802 6.317-2.035 1.664-4.431 2.91-7.192 3.742-2.758.83-5.712 1.246-8.862 1.246h-8.118zm-31.207 0h21.495v4.564h-16.506V20.51h16.027v4.564h-16.027v15.123h16.506v4.565h-21.495zm-41.023 13.586h-.106l-4.671 26.43h-5.147l8.172-41.714 13.746 31.523L244.96 3.05l8.175 41.713h-5.15l-4.672-26.429h-.105l-11.993 27.278zm-40.226 21.864h12.153v4.565h-17.143V4.747h4.99zm-36.619-35.45h21.493v4.564h-16.504V20.51h16.027v4.564h-16.027v15.123h16.504v4.565h-21.493zm-7.27 7.643a15.443 15.443 0 0 0-4.936-2.92 16.281 16.281 0 0 0-5.626-1.008c-2.228 0-4.308.435-6.235 1.3-1.929.867-3.6 2.044-5.015 3.53-1.416 1.485-2.53 3.22-3.343 5.2-.815 1.982-1.222 4.087-1.222 6.315 0 2.195.399 4.273 1.194 6.236a16.303 16.303 0 0 0 3.317 5.175 15.847 15.847 0 0 0 4.99 3.529c1.91.867 3.98 1.3 6.208 1.3a15.63 15.63 0 0 0 5.705-1.06 15.968 15.968 0 0 0 4.962-3.079v5.89a19.627 19.627 0 0 1-5.095 2.097 21.46 21.46 0 0 1-5.413.716c-2.865 0-5.563-.531-8.092-1.591-2.531-1.063-4.742-2.522-6.635-4.38-1.892-1.857-3.388-4.04-4.484-6.554-1.097-2.511-1.645-5.218-1.645-8.119 0-2.972.557-5.74 1.672-8.306 1.114-2.565 2.634-4.793 4.564-6.686 1.928-1.892 4.183-3.379 6.766-4.459 2.582-1.078 5.342-1.618 8.28-1.618 1.768 0 3.51.22 5.226.663a18.082 18.082 0 0 1 4.856 2.044zm-60.66-7.643h5.68l8.172 14.594 8.704-14.594h5.678L91.164 23.8l12.153 20.963h-5.572l-9.447-16.398-9.818 16.398h-5.572L85.485 23.8 74.447 4.747"/></g></svg>