<svg viewBox="0 0 528.42 85.04" xmlns="http://www.w3.org/2000/svg"><path d="m0 54.42v-20.14l7.59-7.59h27.88v7.1h-25.23l-2.89 2.89v15.34l2.89 2.89h25.24v7.11h-27.89zm46.16-27.73h36.41v35.33h-36.41zm29.05 28.22v-21.12h-21.7v21.12zm20.83-28.22h28.62l7.2 7.5v14.8h-9.75l13.13 13.03h-9.31l-12.94-12.89h-9.7v12.89h-7.25zm28.76 15.04v-5.59l-2.01-2.11h-19.5v7.69h21.51zm20.63-15.04h34.99v7.25h-27.39v6.96h20.92v6.91h-20.92v6.86h27.39v7.35h-34.99zm47.74 0h39.89l7.35 7.55v27.78h-7.06v-25.29l-2.89-2.79h-10.04v28.08h-7.11v-28.08h-13.03v28.08h-7.1v-35.33zm60.51 0h34.99v7.25h-27.39v6.96h20.92v6.91h-20.92v6.86h27.39v7.35h-34.99zm47.04 0h30.18l7.6 7.59v20.14l-7.6 7.59h-30.18zm27.54 28.22 2.89-2.89v-15.33l-2.89-2.89h-20.19v21.12h20.19zm22.29-28.22h7.35v35.33h-7.35zm20.83 0h28.67l7.59 7.59v27.73h-7.1v-13.56h-22.05v13.57h-7.1v-35.33zm29.15 14.7v-5.24l-2.3-2.35h-19.75v7.6h22.05zm117.43-26.78v8.2h-2.14v-7.67l-.88-.85h-3.05v8.51h-2.15v-8.5h-3.95v8.51h-2.15v-10.71h11.95c-7.66-7.48-18.13-12.1-29.69-12.1-23.48 0-42.52 19.04-42.52 42.52s19.04 42.52 42.52 42.52 42.52-19.04 42.52-42.52c0-10.69-3.95-20.44-10.46-27.91zm-14.32 17.35h-25.24l-2.89 2.89v15.34l2.89 2.89h25.24v7.11h-27.88l-7.59-7.59v-20.15l7.59-7.59h27.88z" fill="#fff"/><path d="m578.9 137.08v8.75h-2.86v-8.28h-3.25v8.28h-2.86v-8.28h-3.28v8.28h-2.86v-11.13h12.91c-7.94-8.03-18.97-13.01-31.16-13.01-24.2 0-43.83 19.62-43.83 43.83s19.63 43.83 43.83 43.83c24.21 0 43.83-19.62 43.83-43.83.01-10.86-3.94-20.79-10.47-28.44zm-15.01 19.37h-28.82l-2.46 2.47v13.08l2.46 2.47h28.82v8.72h-31.92l-8.52-8.51v-18.31l8.52-8.51h31.92z" fill="#1a1a18"/></svg>