<svg version="1.1" id="svg3336" xmlns="http://www.w3.org/2000/svg" x="0" y="0" viewBox="0 0 1338.9 211.5" xml:space="preserve"><style>.st0{fill-rule:evenodd;clip-rule:evenodd;fill:#fff}</style><path id="path3378" class="st0" d="M31.7.4h143.4v42h-107l-6.4.7-4.3 2.1-2.9 4.3-.7 7.1v27.1h91.3v42H53.9V209H.4V32.4l.7-10L4 14.6l5-6.4 6.4-4.3L23.2 1l8.5-.6z"/><path id="path3380" class="st0" d="M202.2.4h53.5v153.1l.7 6.4 2.1 4.3 4.3 2.1 7.1.7h77.7v42h-114l-9.3-.7-7.8-2.9-5.7-4.3-5-5.7-2.9-8.5-.7-10V.4z"/><path id="path3382" class="st0" d="M460.4.4h63.5l44.2 65.5L612.3.4h64.2l-77 103.3L678.7 209h-63.5l-47.1-68.4-46.3 68.4h-64.2l79.9-105.4L460.4.4z"/><path id="path3384" class="st0" d="M750.8 123.6v29.9l.7 7.8 2.1 4.3 4.3 2.1 7.9.7H815l8.6-.7 6.4-2.1 5-5 2.1-5.7 1.4-9.3-1.4-8.5-2.1-6.4-4.3-4.3-6.4-2.1-7.8-.7h-65.7zM763.6 41l-6.4.7-3.6 2.1-2.1 4.3-.7 6.4v29.9H815l7.8-.7 5.7-2.1 4.3-4.3 2.1-6.4.7-8.5-.7-7.8-2.1-5.7-4.3-4.3-5.7-2.9-7.8-.7h-51.4zM728.7.4h109.1L852 1.8l11.4 3.6 9.3 5.7 7.8 7.8 5 10.7 2.8 12.8.7 15.7-.7 10.7-2.1 10-3.6 8.5-5.7 6.4-7.9 5.7-10.7 2.8v1.4l12.1 2.9 9.3 5 6.4 7.1 3.6 9.3 2.9 10.7.7 12.8-.7 12.8-2.1 11.4-2.9 9.3-5 8.5-7.1 6.4-9.3 5-11.4 3.6-14.3.7h-112l-9.3-.7-7.8-2.9-6.4-4.3-4.3-5.7-2.7-8.5-1.4-10V32.4l1.4-10 2.8-7.8 4.3-6.4 6.4-4.3 7.8-2.9 9.4-.6z"/><path id="path3386" class="st0" d="M926.2.4h53.5v126.8l1.4 13.5 3.6 10.7 5.7 7.8 8.6 6.4 10.7 2.8 13.6 1.4 13.6-1.4 10.7-2.8 8.6-6.4 6.4-7.8 2.9-10.7 1.4-13.5V.4h53.5v128.9l-.7 17.8-3.6 15-5 12.8-7.1 10.7-9.3 8.5-10.7 6.4-12.8 5-14.3 3.6-15.7 2.1h-35.6l-15.7-2.1-14.3-3.6-12.8-5-10.7-6.4-9.3-8.5-7.1-10.7-5-12.8-3.6-15-.7-17.8L926.2.4z"/><path id="path3388" class="st0" d="M1198.7.4h129.1v42h-108.4l-5 .7-5 2.1-2.9 4.3-1.4 6.4.7 5.7 2.8 5 5 3.6 7.8 3.6 73.5 21.4 14.3 5 10.7 6.4 8.6 8.5 5.7 10 2.9 12.8 1.4 15.7-.7 13.5-2.8 12.1-4.3 10-6.4 8.5-8.6 6.4-11.4 3.6-13.6 1.4H1153v-42h115.6l7.1-.7 4.3-2.9 2.1-2.9 1.4-4.3v-3.6l-.7-5-2.9-4.3-5-4.3-7.9-2.9-81.3-24.9-12.1-5-9.3-7.1-6.4-9.3-4.3-10.7-2.9-12.1-.7-14.2 1.4-12.8 2.1-11.4 5-9.3 6.4-7.8 8.6-6.4 11.4-3.6 13.8-1.2z"/><path id="path3390" class="st0" d="M373.4 81.6h56.3V209h-56.3V81.6zm0-80.5h56.3v47h-56.3v-47z"/></svg>