<svg version="1.1" id="jimdo-logo" xmlns="http://www.w3.org/2000/svg" x="0" y="0" viewBox="0 0 291.1 63.3" xml:space="preserve"><style>#jimdo-logo__group-1 path,#jimdo-logo__group-2 path{fill:#fff}</style><g id="jimdo-logo__group-1"><path d="M3.1 36.6C1.4 36.6 0 38 0 39.7v.4c0 13 11.5 23.3 27.1 23.3 18.5 0 27.1-11.3 27.1-27.4V3.8c0-1.7-1.4-3.1-3.1-3.1H15.9c-1.7 0-3.1 1.4-3.1 3.1v9.4c0 1.7 1.4 3.1 3.1 3.1H35c1.7 0 3.1 1.4 3.1 3.1V37c0 4.3-3.5 11.7-11.2 11.7-4.7 0-9.1-3.8-10.4-8.4l-.2-.7c-.5-1.6-2.4-2.9-4.1-2.9H3.1zM81.4 59.3c0 1.6-1.3 2.8-2.8 2.8H68c-1.6 0-2.8-1.3-2.8-2.8V3.4c0-1.6 1.3-2.8 2.8-2.8h10.5c1.6 0 2.8 1.3 2.8 2.8v55.9zM151.2 62.1c.8 0 1.5-.3 2-.8L97.2 2C94.6-.8 92.4.1 92.4 3.9v55.4c0 1.5 1.3 2.8 2.8 2.8h56z"/></g><g id="jimdo-logo__group-2"><path opacity=".7" d="M93.2 61.3c.5.5 1.2.8 2 .8h55.9c1.5 0 2.8-1.2 2.8-2.8V4c0-3.9-2.2-4.8-4.9-1.9L93.2 61.3z"/><path d="M185.9.6c1.7 0 4.5.1 6.1.2 0 0 27.7 1.7 27.7 30.6S192 61.9 192 61.9c-1.7.1-4.5.2-6.1.2h-17.8c-1.7 0-3.1-1.4-3.1-3.1V3.7c0-1.7 1.4-3.1 3.1-3.1h17.8z"/><circle cx="259.7" cy="31.4" r="31.4" fill="#fff"/></g></svg>