<svg viewBox="0 0 362.8 103.7" xmlns="http://www.w3.org/2000/svg"><g fill="#fff"><path d="m135.4 46c-6.7 0-10.8 4.9-10.8 13.5 0 7.9 3.7 13.9 10.7 13.9 6.7 0 11.1-5.4 11.2-14.1 0-9.2-5-13.3-11.1-13.3zm178 22.9c0 2.9 1.4 5.2 5.3 5.2 4.6 0 9.5-3.3 9.9-10.8-2.1-.3-4.4-.6-6.5-.6-4.7 0-8.7 1.3-8.7 6.2z"/><path d="m0 0v103.7h362.8v-103.7zm105.5 82.4h-19v-25.6c0-7.9-2.6-10.9-7.7-10.9-6.2 0-8.8 4.4-8.8 10.8v15.8h6v9.9h-19v-25.6c0-7.9-2.6-10.9-7.8-10.9-6.2 0-8.8 4.4-8.8 10.8v15.8h8.7v9.9h-27.6v-9.9h6v-25.7h-6v-9.9h19v6.8c2.7-4.8 7.4-7.7 13.8-7.7 6.5 0 12.6 3.1 14.8 9.8 2.5-6 7.6-9.8 14.8-9.8 8.2 0 15.6 4.9 15.6 15.7v20.8h6zm29.4 1c-14 0-23.7-8.5-23.7-23 0-13.3 8.1-24.3 24.4-24.3s24.2 11 24.3 23.6c0 14.5-10.5 23.7-25 23.7zm73.2-1h-39.7l-1.3-6.8 25-28.7h-14.2l-2 7-9.4-1 1.6-15.9h39.9l1 6.8-25.2 28.7h14.7l2.1-7 10.3 1zm25.9 0h-13.6v-16.3h13.6zm0-29.1h-13.6v-16.3h13.6zm8.5 29.1 19.6-69.2h12.8l-19.6 69.2zm26.4 0 19.6-69.2h12.8l-19.6 69.2zm69.8 1c-6.1 0-9.4-3.6-10-9.1-2.6 4.7-7.3 9.1-14.6 9.1-6.6 0-14-3.5-14-13 0-11.2 10.7-13.8 21.1-13.8 2.5 0 5.1.1 7.4.4v-1.5c0-4.7-.1-10.2-7.4-10.2-2.7 0-4.8.2-6.9 1.3l-1.5 5.1-10.4-1.1 1.8-10.4c7.9-3.2 12-4.1 19.4-4.1 9.7 0 18 5 18 15.4v19.7c0 2.6 1 3.5 3.1 3.5.6 0 1.2-.1 1.9-.3l.3 6.9c-2.5 1.3-5.4 2.1-8.2 2.1z"/></g></svg>