<svg viewBox="0 0 594.2 170.4" xmlns="http://www.w3.org/2000/svg"><g fill="#fff"><path d="m506.7 86.8c-5.7 0-10.3 4.7-10.3 10.2 0 5.7 4.7 10.3 10.3 10.3s10.3-4.7 10.3-10.3c.1-5.5-4.6-10.2-10.3-10.2zm38.1 0c-5.7 0-10.3 4.7-10.3 10.2 0 5.7 4.7 10.3 10.3 10.3 5.7 0 10.3-4.7 10.3-10.3 0-5.5-4.6-10.2-10.3-10.2zm38.1 0c-5.7 0-10.3 4.7-10.3 10.2 0 5.7 4.7 10.3 10.3 10.3 5.7 0 10.3-4.7 10.3-10.3 0-5.5-4.6-10.2-10.3-10.2zm-76.2-41.4c-5.7 0-10.3 4.7-10.3 10.2 0 5.7 4.7 10.3 10.3 10.3s10.3-4.7 10.3-10.3c.1-5.5-4.6-10.2-10.3-10.2zm38.1 0c-5.7 0-10.3 4.7-10.3 10.2 0 5.7 4.7 10.3 10.3 10.3 5.7 0 10.3-4.7 10.3-10.3 0-5.5-4.6-10.2-10.3-10.2zm38.1 0c-5.7 0-10.3 4.7-10.3 10.2 0 5.7 4.7 10.3 10.3 10.3 5.7 0 10.3-4.7 10.3-10.3 0-5.5-4.6-10.2-10.3-10.2z"/><path clip-rule="evenodd" d="m178.2 159.1c0-3.7-2.2-7.4-7.3-8.3v-.1c3.9-1.2 6.5-4.6 6.5-8.4 0-5.4-3.8-8.6-11.7-8.6-4.3 0-8 .1-10.6.2v36c3.5.1 7 .2 9.2.2 11.2-.1 13.9-6.7 13.9-11zm-5.9-16c0 3.9-3.1 6.3-9.1 6.3-1.3 0-2.2 0-3.3-.1v-11.6c1.4-.1 3.2-.1 4.9-.1 5.8 0 7.5 2.3 7.5 5.5zm.7 16.2c0 4-2.6 6.8-8.5 6.8-2.1 0-3.7-.1-4.6-.3v-12.6c.9-.1 2.7-.1 3.4-.1 5.6 0 9.7 1.5 9.7 6.2zm31-24.3c0-1.6-1.2-2.9-2.8-2.9s-2.9 1.3-2.9 2.9 1.3 2.8 2.9 2.8 2.8-1.2 2.8-2.8zm-10.2 0c0-1.6-1.2-2.9-2.8-2.9s-2.9 1.3-2.9 2.9 1.3 2.8 2.9 2.8 2.8-1.2 2.8-2.8zm13.3 34.9v-26.5h-4.8v12.8c0 5.9-3.2 10.3-7.6 10.3-3.5 0-4.5-2.2-4.5-5.9v-17.1h-4.8v18.6c0 4.7 1.9 8.5 8 8.5 4.5 0 7.8-2.5 9.3-6.1l.1.1c-.3 1.5-.4 4-.4 5.6h4.7z" fill-rule="evenodd"/><path d="m229.5 142.9c-5.3-.6-8 3.1-9.1 6.8h-.1c.4-2.2.6-4.6.6-6.3h-4.6v26.5h4.8v-10.7c0-8.5 2.7-12.6 8.3-11.6z"/><path clip-rule="evenodd" d="m256.9 156.2c0-9.6-5.2-13.3-12-13.3-8 0-12.9 6.2-12.9 14 0 9.3 4.7 13.5 11.9 13.5 7.9 0 13-6.2 13-14.2zm-5 .2c0 6.8-3.4 9.9-7.4 9.9-4.9 0-7.5-3.5-7.5-9.9 0-6.6 3.6-9.5 7.5-9.5 4.9 0 7.4 3.5 7.4 9.5z" fill-rule="evenodd"/><path d="m291.1 131.1c-1.4-.3-2.9-.5-4.4-.5-6.6 0-10.2 3.5-10.2 10.8v2h-5.4v3.7h5.4v22.8h4.8v-22.8h7.4v-3.7h-7.4v-2c0-4.7 1.7-6.8 5.4-6.8 1.3 0 2.7.2 3.9.6z"/><path clip-rule="evenodd" d="m312.4 135c0-1.6-1.2-2.9-2.8-2.9s-2.9 1.3-2.9 2.9 1.3 2.8 2.9 2.8 2.8-1.2 2.8-2.8zm-10.2 0c0-1.6-1.2-2.9-2.8-2.9s-2.9 1.3-2.9 2.9 1.3 2.8 2.9 2.8c1.5 0 2.8-1.2 2.8-2.8zm13.3 34.9v-26.5h-4.8v12.8c0 5.9-3.2 10.3-7.6 10.3-3.5 0-4.5-2.2-4.5-5.9v-17.1h-4.8v18.6c0 4.7 1.9 8.5 8 8.5 4.5 0 7.8-2.5 9.3-6.1l.1.1c-.3 1.5-.4 4-.4 5.6h4.7z" fill-rule="evenodd"/><path d="m337.9 142.9c-5.3-.6-8 3.1-9.1 6.8h-.1c.4-2.2.6-4.6.6-6.3h-4.6v26.5h4.8v-10.7c0-8.5 2.7-12.6 8.3-11.6zm17.3-9.1h4.9v36h-4.9zm35.6 36.1v-18.6c0-4.7-1.9-8.5-8-8.5-4.5 0-7.8 2.5-9.3 6.1l-.1-.1c.3-1.5.4-4 .4-5.6h-4.6v26.5h4.8v-12.8c0-5.9 3.1-10.3 7.5-10.3 3.5 0 4.5 2.2 4.5 5.9v17.1h4.8zm24.9-38.8c-1.4-.3-2.9-.5-4.4-.5-6.6 0-10.2 3.5-10.2 10.8v2h-5.4v3.7h5.4v22.8h4.8v-22.8h7.4v-3.7h-7.4v-2c0-4.7 1.7-6.8 5.4-6.8 1.3 0 2.7.2 3.9.6z"/><path clip-rule="evenodd" d="m440 156.2c0-9.6-5.2-13.3-12-13.3-8 0-12.9 6.2-12.9 14 0 9.3 4.7 13.5 11.9 13.5 7.9 0 13-6.2 13-14.2zm-5 .2c0 6.8-3.4 9.9-7.4 9.9-4.9 0-7.5-3.5-7.5-9.9 0-6.6 3.6-9.5 7.5-9.5 4.9 0 7.4 3.5 7.4 9.5z" fill-rule="evenodd"/><path d="m460 142.9c-5.3-.6-8 3.1-9.1 6.8h-.1c.4-2.2.6-4.6.6-6.3h-4.6v26.5h4.8v-10.7c0-8.5 2.7-12.6 8.3-11.6zm43.5 27v-18.4c0-6-2.9-8.7-7.9-8.7-5.1 0-8 3.5-9.1 6-.2-2.1-1.7-6-7.3-6-4.3 0-7.7 2.4-9.2 6.1l-.1-.1c.3-1.6.4-4 .4-5.6h-4.6v26.5h4.8v-12.7c0-6.1 3.4-10.4 7.4-10.4 3.6 0 4.3 2.7 4.3 6v17.1h4.8v-12.7c0-6.4 3.6-10.4 7.4-10.4 3.5 0 4.3 2.4 4.3 6v17h4.8z"/><path clip-rule="evenodd" d="m531.3 169.9c-.1-2.3-.1-5.1-.1-7.6v-10.6c0-5.3-2.2-8.9-9.8-8.9-3.5 0-6.7.9-9.3 1.9l.5 4.1c2.3-1.4 5.5-2.2 8-2.2 4.4 0 5.8 2 5.8 5.7v2c-10 0-16 3.7-16 9.5 0 4.2 3 6.6 7.4 6.6s7.7-2.5 9-5.8h.1c-.3 1.5-.3 3.4-.3 5.3zm-4.9-11.8c0 4.2-2.9 8.4-7.2 8.4-2.5 0-4.1-1.4-4.1-3.7 0-2.4 2-5.2 11.3-5.2z" fill-rule="evenodd"/><path d="m553 169.8v-4.1c-1.1.3-2.4.5-3.6.5-3 0-3.8-1.2-3.8-5.6v-13.6h7.4v-3.7h-7.4v-9.9l-4.8 1.3v8.6h-5.4v3.7h5.4v15.3c0 5.7 1.7 8 7.1 8 1.7 0 3.6-.2 5.1-.5z"/><path clip-rule="evenodd" d="m565.1 135.8c0-1.8-1.4-3.1-3.2-3.1s-3.2 1.4-3.2 3.1c0 1.8 1.4 3.2 3.2 3.2s3.2-1.5 3.2-3.2zm-.8 34.1v-26.5h-4.8v26.5z" fill-rule="evenodd"/><path d="m594.2 169.9-11-14.4 10.2-12.1h-5.8l-9.3 11.6v-24.1h-4.8v39h4.8v-13.7l9.8 13.7z"/><path clip-rule="evenodd" d="m476.1 106.2v-106.2h-13.1v33.6c-4.4-.4-8.3-.7-12.2-.7-22.8 0-37.4 15.3-37.4 40.6 0 21.1 8.9 34 26.6 34 11.3 0 20.2-6.4 24.3-16.1l.3.1c-.9 4.2-1.2 10.6-1.2 14.7zm-13.1-37.4c0 12.7-6.7 27.9-19.8 27.9-10.9 0-16-8.9-16-24.4 0-20.8 9.2-29.1 23-29.1 4.1 0 8.4.4 12.8 1.6z" fill-rule="evenodd"/><path d="m231.3 0h13.1v106.2h-13.1zm-172.3 106.2v-50.7c0-12.8-5.2-23.1-21.8-23.1-12.4 0-21.2 6.7-25.4 16.7l-.3-.1c.9-4.2 1.2-10.9 1.2-15.1h-12.7v72.3h13.1v-34.8c0-16 8.6-28.1 20.5-28.1 9.6 0 12.4 6 12.4 16.1v46.7h13z"/><path clip-rule="evenodd" d="m135.5 63c0-16.6-8.6-30.4-28.9-30.4-20.5 0-32.3 16.1-32.3 37.8 0 25.4 11.9 37.1 34.2 37.1 9 0 17.4-1.6 24.4-4.5l-1.2-10.6c-5.8 2.8-13.7 4.5-21.1 4.5-15.4 0-23.4-8.3-22.8-27.6h47.3c.3-2.6.4-4.6.4-6.3zm-13.4-3.1h-33.7c1.5-10.6 8.1-17.7 17.6-17.7 10.2 0 16.4 7.1 16.1 17.7z" fill-rule="evenodd"/><path d="m210 106.2v-72.3h-12.9v34.8c0 16-8.7 28.1-20.6 28.1-9.5 0-12.4-6-12.4-16.1v-46.8h-12.9v50.6c0 12.8 5.1 23.1 21.7 23.1 12.4 0 21.2-6.7 25.4-16.7l.3.1c-.7 4.2-1.2 10.9-1.2 15.1h12.6z"/><path clip-rule="evenodd" d="m319.3 106.2c-.1-6.3-.3-14-.3-20.8v-28.8c0-14.4-6-24.1-26.8-24.1-9.6 0-18.3 2.3-25.3 5.2l1.3 11.2c6.3-3.8 15-6 21.8-6 11.9 0 15.8 5.4 15.8 15.4v5.4c-27.3 0-43.5 10-43.5 25.9 0 11.5 8.1 17.9 20.1 17.9s21.1-6.8 24.6-15.7h.3c-.7 4.1-.7 9.3-.7 14.4zm-13.4-32c0 11.3-7.9 23-19.6 23-6.7 0-11.1-3.9-11.1-10 0-6.5 5.5-14.2 30.7-14.2z" fill-rule="evenodd"/><path d="m398 106.2v-50.7c0-12.8-5.2-23.1-21.8-23.1-12.4 0-21.2 6.7-25.4 16.7l-.3-.1c.9-4.2 1.2-10.9 1.2-15.1h-12.7v72.3h13.1v-34.8c0-16 8.6-28.1 20.5-28.1 9.6 0 12.4 6 12.4 16.1v46.7h13z"/></g></svg>