<svg version="1.1" id="Ebene_1" xmlns="http://www.w3.org/2000/svg" x="0" y="0" viewBox="0 0 113.3 17.9" xml:space="preserve"><style>.st0{fill:#fff}</style><path class="st0" d="M14.2 9.9c-1.4.1-2.9.8-4.7 2-2.4 1.7-4.4 2.6-6.7 2.4-.8-.1-1.6-.5-1.6-.5l.4.6c1.6 2.1 4.2 3.5 7.1 3.5 3.6 0 6.7-2.1 8.2-5.2.8-2-1.3-3-2.7-2.8zM8.8 0C4.4 0 .7 3.2 0 7.3v.5c0 2 1.6 3.7 3.7 3.7.4 0 .7-.1 1.1-.2.1 0 .2-.1.3-.1 1.1-.4 2.1-1 3-1.6 3.1-2.1 5.9-2.9 8.3-2.4.5.1 1 .3 1.4.5-.7-4.4-4.5-7.7-9-7.7z"/><g><path class="st0" d="M30.8 10.1h-1.5v5.1c0 .3-.2.5-.5.5h-.9c-.3 0-.5-.2-.5-.5V2.6c0-.3.2-.5.5-.5.7-.1 1.6-.1 3-.1 4 0 5.1 2.3 5.1 4.1 0 1.6-1.3 3-2.7 3.5 1.1.6 2.1 2.3 2.9 3.8 0 0 .8 1.6.9 1.7 0 .1.1.2.1.2 0 .3-.2.5-.5.5h-1.1c-.1 0-.4-.1-.4-.3l-1-2c-1-1.8-2.2-3.4-3.4-3.4zm.3-6.5c-.6 0-1.3 0-1.7.1v4.8H31c1.9 0 3-1 3-2.5-.1-1-.7-2.4-2.9-2.4zM46.7 15.2c0 .3-.2.5-.5.5h-.8c-.3 0-.5-.2-.5-.5V9.5c0-1.2-.5-2-2-2-.9 0-1.7.5-2.2 1.1v6.6c0 .3-.2.5-.5.5h-.8c-.3 0-.5-.2-.5-.5V2.7c0-.3.2-.5.5-.5h.8c.3 0 .5.2.5.5v4.5c.9-.9 2-1.1 2.6-1.1 2.2 0 3.4 1.2 3.4 3.2v5.9zM60.5 4.8c-.7 0-1.1-.4-1.1-1s.4-1 1.1-1c.6 0 1.1.4 1.1 1s-.4 1-1.1 1zm-.4 10.9c-.3 0-.5-.2-.5-.5V6.7c0-.3.2-.5.5-.5h.8c.3 0 .5.2.5.5v8.5c0 .3-.2.5-.5.5h-.8zM72.1 9.3v5.9c0 .3-.2.5-.5.5h-.8c-.3 0-.5-.2-.5-.5V9.5c0-1.2-.5-2-2-2-1 0-1.7.6-2.2 1.1v6.6c0 .3-.2.5-.5.5h-.8c-.3 0-.5-.2-.5-.5V6.7c0-.3.2-.5.5-.5h.7c.2 0 .5.2.5.4l.1.5c.7-.7 1.8-1.1 2.7-1.1 2.1.1 3.3 1.3 3.3 3.3zM83.1 15.7c-.2 0-.4-.2-.5-.3 0 0-1.8-5.8-2.1-6.9-.3 1.1-2.1 6.9-2.1 6.9-.1.2-.3.3-.5.3h-1.1c-.2 0-.4-.2-.5-.4L74 6.8v-.2c0-.3.2-.5.5-.5h.8c.2 0 .4.2.5.4l1.6 6.9c.7-2.4 1.5-4.6 2.2-7 .1-.2.3-.4.5-.4h.8c.2 0 .4.2.5.4l2.2 7c.9-4.1 1.3-5.5 1.6-6.9 0-.2.3-.4.5-.4h.8c.3 0 .5.2.5.5v.2c-1.6 5.8-1.9 7.1-2.3 8.5-.1.2-.3.4-.5.4h-1.1zM113.3 15.3c0 .3-.2.5-.5.5h-1c-.1 0-.3-.1-.4-.2 0 0-2.9-3.8-3.6-5v4.7c0 .3-.2.5-.5.5h-.8c-.3 0-.5-.2-.5-.5V2.7c0-.3.2-.5.5-.5h.8c.3 0 .5.2.5.5v7c.6-.8 2.4-2.4 3.2-3.1.2-.2.3-.2.5-.2h.8c.3 0 .5.2.5.5 0 .1-.1.3-.2.4l-3.3 3 3.9 4.8c.1-.1.1 0 .1.2zM104.2 7.3c-.1.2-.2.3-.4.2-.2 0-.4-.1-.6 0-.9 0-1.6.6-2 1.2v6.5c0 .3-.2.5-.5.5h-.8c-.3 0-.5-.2-.5-.5V6.8c0-.3.2-.5.5-.5h.7c.3 0 .5.2.5.5v.4c.9-.9 2-1.1 2.6-1.1h.4c.3 0 .4.3.3.5l-.2.7zM56.4 13.9c.2 0 .4.1.5.3l.1.4v.1c0 .2-.1.4-.3.5-.8.3-2 .6-3.2.6-2.6 0-4.6-1.7-4.6-4.9s2-4.9 4.6-4.9c2.5 0 3.9 1.6 3.9 4.1v.7c0 .3-.2.5-.5.5h-6.2c.1 2.2 1.4 3.2 2.8 3.2 1 0 1.8-.2 2.7-.6h.2zm-.7-4c0-1.5-1-2.4-2.3-2.4-1.4 0-2.4.9-2.6 2.8h4.9v-.4zM96 13.9c.2 0 .4.1.5.3l.1.4v.1c0 .2-.1.4-.3.5-.8.3-2 .6-3.2.6-2.6 0-4.6-1.7-4.6-4.9s2-4.9 4.6-4.9c2.5 0 3.9 1.6 3.9 4.1v.7c0 .3-.2.5-.5.5h-6.2c.1 2.1 1.4 3.1 2.8 3.1 1 0 1.8-.2 2.7-.6.1.1.2.1.2.1zm-.7-4c0-1.5-1-2.4-2.3-2.4-1.4 0-2.4.9-2.6 2.8h4.9v-.4z"/></g></svg>