<svg viewBox="0 0 446.3 127.5" xmlns="http://www.w3.org/2000/svg"><g fill="#fff"><path d="m154.3 70.9c-3.8-2.1-5.8-3.8-5.8-6.2 0-3.1 2.7-5 7-5 5 0 9.4 2.1 9.4 2.1l3.5-10.7s-3.2-2.5-12.7-2.5c-13.2 0-22.4 7.6-22.4 18.2 0 6 4.3 10.6 10 13.9 4.6 2.6 6.2 4.5 6.2 7.2 0 2.9-2.3 5.2-6.6 5.2-6.4 0-12.4-3.3-12.4-3.3l-3.7 10.7s5.6 3.7 14.9 3.7c13.6 0 23.3-6.7 23.3-18.7.2-6.6-4.8-11.2-10.7-14.6z"/><path d="m208.5 48.4c-6.7 0-11.9 3.2-16 8l-.2-.1 5.8-30.4h-15.1l-14.7 77.3h15.1l5-26.4c2-10 7.1-16.1 11.9-16.1 3.4 0 4.7 2.3 4.7 5.6 0 2.1-.2 4.6-.7 6.7l-5.7 30.3h15.1l5.9-31.2c.7-3.3 1.1-7.2 1.1-9.9.1-8.7-4.4-13.8-12.2-13.8z"/><path d="m255 48.4c-18.2 0-30.3 16.4-30.3 34.7 0 11.7 7.2 21.2 20.8 21.2 17.9 0 29.9-16 29.9-34.7.1-10.9-6.2-21.2-20.4-21.2zm-7.4 44.2c-5.2 0-7.3-4.4-7.3-9.9 0-8.7 4.5-22.8 12.7-22.8 5.4 0 7.1 4.6 7.1 9.1 0 9.4-4.5 23.6-12.5 23.6z"/><path d="m314.2 48.4c-10.2 0-16 9-16 9h-.2l.9-8.1h-13.4c-.7 5.5-1.9 13.8-3.1 20.1l-10.5 55.4h15.1l4.2-22.4h.3s3.1 2 8.9 2c17.8 0 29.4-18.2 29.4-36.6 0-10.3-4.5-19.4-15.6-19.4zm-14.4 44.5c-3.9 0-6.2-2.2-6.2-2.2l2.5-14.1c1.8-9.4 6.7-15.7 11.9-15.7 4.6 0 6 4.3 6 8.3 0 9.7-5.8 23.7-14.2 23.7z"/><path d="m351.4 26.6c-4.8 0-8.7 3.8-8.7 8.8 0 4.5 2.8 7.6 7.1 7.6h.2c4.7 0 8.8-3.2 8.9-8.8.1-4.4-2.9-7.6-7.5-7.6z"/><path d="m330.2 103.2h15.2l10.3-53.6h-15.3z"/><path d="m394.1 49.4h-10.5l.5-2.5c.9-5.2 3.9-9.8 9-9.8 2.7 0 4.8.8 4.8.8l3-11.8s-2.6-1.3-8.2-1.3c-5.4 0-10.7 1.5-14.8 5-5.2 4.4-7.6 10.7-8.8 17.1l-.4 2.5h-7l-2.2 11.4h7l-8 42.3h15.1l8-42.3h10.4z"/><path d="m430.5 49.6s-9.5 23.8-13.7 36.8h-.2c-.3-4.2-3.7-36.8-3.7-36.8h-15.9l9.1 49.2c.2 1.1.1 1.8-.3 2.5-1.8 3.4-4.7 6.7-8.2 9.1-2.8 2.1-6 3.4-8.5 4.3l4.2 12.8c3.1-.7 9.4-3.2 14.8-8.2 6.9-6.5 13.3-16.4 19.8-30l18.5-39.7z"/><path d="m72 124.3 37.4-8.1s-13.5-91.3-13.6-91.9-.6-1-1.1-1-10-.7-10-.7-6.6-6.6-7.4-7.3c-.2-.2-.4-.3-.6-.4zm3.1-109.6c-.1 0-.3.1-.4.1s-1.5.4-3.7 1.1c-2.2-6.4-6.1-12.3-13-12.3h-.6c-2-2.5-4.4-3.6-6.5-3.6-16.1 0-23.8 20.1-26.2 30.3-6.2 1.9-10.7 3.3-11.2 3.5-3.5 1.1-3.6 1.2-4 4.5-.4 2.4-9.5 72.9-9.5 72.9l70.3 13.2zm-18.3 4.9v.7c-3.9 1.2-8.2 2.5-12.4 3.8 2.4-9.2 6.9-13.7 10.8-15.4 1 2.6 1.6 6.1 1.6 10.9zm-6.4-15.3c.7 0 1.4.2 2.1.7-5.1 2.4-10.7 8.5-13 20.7-3.4 1.1-6.7 2.1-9.8 3 2.7-9.3 9.2-24.4 20.7-24.4zm2.8 54.3s-4.2-2.2-9.2-2.2c-7.5 0-7.8 4.7-7.8 5.9 0 6.4 16.8 8.9 16.8 24 0 11.9-7.5 19.5-17.7 19.5-12.2 0-18.4-7.6-18.4-7.6l3.3-10.8s6.4 5.5 11.8 5.5c3.5 0 5-2.8 5-4.8 0-8.4-13.8-8.8-13.8-22.6 0-11.6 8.3-22.9 25.2-22.9 6.5 0 9.7 1.9 9.7 1.9zm6.4-50.6c3.6.4 5.9 4.5 7.4 9.1-1.8.6-3.8 1.2-6 1.9v-1.3c0-3.9-.5-7.1-1.4-9.7z"/></g></svg>