<svg viewBox="0 0 594.4 195.9" xmlns="http://www.w3.org/2000/svg"><path d="m320.3 57.3h14v27.3c.9-1 2.8-2 5.5-3.2s5.9-1.8 9.7-1.8c4 0 7.6.8 10.8 2.3 3.1 1.5 5.8 3.5 8 6.1 2.2 2.5 3.9 5.5 5.1 9 1.1 3.5 1.7 7.2 1.7 11.1 0 4.2-.7 8.1-2.2 11.8s-3.6 6.9-6.3 9.6-6 4.9-9.9 6.5-9 2.4-13.8 2.4-11.4 0-22.6-1.9zm14 67.8c1.1.4 2.3.7 3.4.9 1.2.2 3.1.3 5.6.3 2.9 0 5.3-.5 7.5-1.5 2.1-1 4-2.3 5.5-4s2.6-3.6 3.4-5.8 1.1-4.4 1.1-6.7c0-2.1-.3-4.2-.8-6.2s-1.3-3.7-2.4-5.3c-1.1-1.5-2.5-2.8-4.2-3.7s-3.7-1.4-6.1-1.4c-4.3 0-7.5 1.1-9.7 3.3s-3.3 5.2-3.3 9zm153.7-67.8h14v27.3c1-1 2.8-2 5.5-3.2s5.9-1.8 9.7-1.8c4 0 7.6.8 10.8 2.3 3.1 1.5 5.8 3.5 8 6.1 2.2 2.5 3.9 5.5 5.1 9 1.1 3.5 1.7 7.2 1.7 11.1 0 4.2-.7 8.1-2.2 11.8s-3.6 6.9-6.3 9.6-6 4.9-9.9 6.5-9 2.4-13.8 2.4-11.3 0-22.6-1.9zm14 67.8c1.1.4 2.3.7 3.4.9 1.2.2 3.1.3 5.6.3 2.9 0 5.3-.5 7.5-1.5 2.1-1 4-2.3 5.5-4s2.6-3.6 3.4-5.8 1.1-4.4 1.1-6.7c0-2.1-.3-4.2-.8-6.2s-1.3-3.7-2.4-5.3c-1.1-1.5-2.5-2.8-4.2-3.7s-3.7-1.4-6.1-1.4c-4.3 0-7.5 1.1-9.7 3.3s-3.3 5.2-3.3 9zm-256.2-17.8c0 4.4.7 8.6 2.1 12.4s3.5 7.1 6.3 9.9 6.2 5 10.2 6.7c4 1.6 8.6 2.4 13.7 2.4s9.7-.8 13.7-2.4 7.4-3.8 10.2-6.7c2.8-2.8 4.9-6.1 6.3-9.9s2.1-7.9 2.1-12.4v-50h-15v47.4c0 3-.3 5.7-.9 8.1s-1.6 4.5-2.9 6.2-3.1 3-5.3 3.9-5 1.4-8.2 1.4-6-.5-8.2-1.4-4-2.2-5.3-3.9-2.3-3.8-2.9-6.2-.9-5.1-.9-8.1v-47.4h-15zm136.9-50h14v14h-14zm0 23.5h14v55.7h-14zm23.9 55.7h14v-79.2h-14zm58.1-5.2c-1.5 1.8-3.8 3.4-6.9 4.9-3.1 1.4-6.5 2.1-10.3 2.1-2.3 0-4.6-.4-6.8-1.1-2.3-.7-4.3-1.8-6.2-3.3s-3.4-3.3-4.5-5.6-1.7-5-1.7-8.1c0-3.2.6-6 1.8-8.5s2.8-4.6 5-6.3 4.7-3 7.7-3.9 6.3-1.3 10-1.3c1.1 0 2.3 0 3.7.1 1.3 0 2.7.1 3.9.2 1.4.1 2.9.2 4.4.2v-1.3c0-2.8-1.1-5-3.3-6.5-2.2-1.6-5.1-2.4-8.7-2.4-4 0-7.1.5-9.5 1.5s-4.5 2.1-6.3 3.3l-6.4-9.5c1.1-.8 2.4-1.6 3.8-2.4s3.1-1.6 5-2.3 4.1-1.2 6.6-1.7c2.5-.4 5.4-.6 8.7-.6 3.6 0 6.8.5 9.7 1.5s5.4 2.4 7.4 4.2c2.1 1.8 3.6 3.9 4.8 6.4 1.1 2.5 1.7 5.2 1.7 8.1v37.4h-13.1zm0-20c-1.4-.1-2.8-.2-4.2-.2-1.1-.1-2.3-.1-3.5-.2-1.2 0-2.3-.1-3.1-.1-4.5 0-7.7.9-9.5 2.7s-2.7 3.8-2.7 6.1c0 2.4.8 4.2 2.6 5.6 1.7 1.3 4.2 2 7.5 2 1.7 0 3.3-.3 4.8-.8s2.9-1.3 4.1-2.3 2.2-2.1 2.9-3.3c.7-1.3 1.1-2.6 1.1-4zm81.6 18.4c2.5 2.9 5.9 5 10.1 6.5s8.9 2.2 14.1 2.2c3.2 0 6.3-.4 9.2-1.2s5.4-2 7.6-3.5 3.9-3.3 5.2-5.5 1.9-4.6 1.9-7.3-.4-5-1.3-7c-.9-1.9-2.1-3.6-3.7-5.1-1.6-1.4-3.6-2.6-5.8-3.6-2.3-1-4.8-1.7-7.7-2.4-4.6-1.1-8-2.2-10.2-3.2s-3.3-2.4-3.3-4.1c0-1.4.7-2.6 2-3.6s3.6-1.5 7-1.5c3.3 0 6.2.5 8.7 1.4s4.4 1.9 5.9 3l7.3-9.9c-2.8-2.1-5.9-3.6-9.3-4.6s-7.6-1.5-12.5-1.5c-2.8 0-5.5.4-8.3 1.2-2.7.8-5.2 1.9-7.4 3.4s-3.9 3.3-5.3 5.5c-1.3 2.2-2 4.7-2 7.4s.6 5 1.7 7c1.1 1.9 2.6 3.6 4.4 5s3.7 2.5 5.8 3.3 4 1.4 5.9 1.9c3.1.7 5.5 1.4 7.4 2 1.8.6 3.2 1.3 4.3 1.9 1 .6 1.7 1.3 2 2s.5 1.4.5 2.2c0 1.8-.9 3.1-2.7 3.9s-4.2 1.2-7.2 1.2c-3.4 0-6.4-.6-9.1-1.7s-4.9-2.6-6.6-4.3zm-448.3-129.7c-54.1 0-98 43.9-98 98s43.9 98 98 98 98-43.9 98-98c-.1-54.1-43.9-98-98-98m-32.2 125.8c-15.3 0-27.8-12.5-27.8-27.8s12.5-27.8 27.8-27.8 27.9 12.4 27.9 27.8c0 15.3-12.5 27.8-27.9 27.8m49.3-.1h-10.7v-55.7h10.7zm21.4 0h-10.7v-55.7h10.7zm21.4 0h-10.7v-55.7h10.7zm-92.1-45c-9.5 0-17.3 7.8-17.3 17.3s7.8 17.3 17.3 17.3 17.3-7.7 17.3-17.3-7.7-17.3-17.3-17.3" fill="#fff"/></svg>