<svg viewBox="0 0 184.1 92.8" xmlns="http://www.w3.org/2000/svg"><path d="m176.9 49.3-.3-.1s4.5-1 6.6-5.4c1.2-2.6 1.3-5.6.1-8.2-1.9-4.5-4.8-8.4-8.5-11.6-1.8-1.6-4.2-2.5-6.6-2.5-5.9 0-8.4 4.7-8.4 4.7v-16.2c0-5.5-4.4-9.9-9.9-10-2.3 0-6.7.8-9.7 1.6-2.9.8-5.7 1.8-8.4 3.1-2.5 1.2-4.4 3.4-5.2 6s-.5 5.5.9 7.9l8.1 14.1s-1.9-1.2-4.7-1.2c-4.3 0-8.1 2.7-9.4 6.8l-.3.9c-1.3-1.2-2.9-2.4-4.8-3.3-2.6-1.2-5.5-1.9-8.4-1.9-2.2 0-4.4.4-6.4 1.1-1.5-.8-3.2-1.2-5-1.2-2.5 0-4.9.9-6.7 2.4v-2c0-5.9-4.8-10.7-10.7-10.7s-10.7 4.8-10.7 10.7v5.9c-4-4.2-9.4-6-14.3-6-3.6 0-8.5 1.2-12.6 4.5-1.4-1.9-3.3-3.3-5.6-4-1-.3-2.1-.5-3.2-.5-4.8 0-8.9 3.1-10.3 7.6l-.4 1.5-1.5-3c-2-4.3-8.1-8-14.5-5-2.6 1.3-4.5 3.5-5.5 6.2-.9 2.7-.8 5.7.5 8.3l10.2 21c-3 1.2-5.3 3.6-6.2 6.9-.9 3.2-.3 6.5 1.6 9.1 1.5 2 4.5 4.5 10 4.6h.6c7.8 0 13.5-3.9 15.7-10.6.9-2.8 1.9-6 3-9.4.2.4.4.8.6 1.3 3.4 6.4 9.5 9.9 17.4 9.9 7.4 0 12.5-2.5 15.7-5.7 1.8 3.3 5.4 5.6 9.4 5.6 2.5 0 4.9-.9 6.7-2.4v2c0 5.9 4.8 10.7 10.7 10.7 5.8 0 10.6-4.7 10.7-10.4.1 0 8.4.5 13.9-5.4 1.4-1.5 5.4-5.6 6-16 .8.2 1.7.4 2.6.4 1.2 0 2.6-.4 2.7-.4-2.2 2.3-3 5.3-2.7 8.1s1.9 5.4 4.2 7c4 2.7 8.6 4.6 13.3 5.4.5.1 1.1.1 1.7.1 5.4 0 9.8-4.2 9.9-9.6v-.3l.2.3c1.8 2.9 5 4.7 8.4 4.7 2.3 0 4.6-.8 6.3-2.3 3.7-3.1 6.8-7 8.8-11.3 1.2-2.6 1.3-5.6.2-8.2-.9-2.7-3.1-4.7-5.8-5.6z" fill="none"/><g fill="#fff"><path clip-rule="evenodd" d="m83 71.9c0 2.1-1.7 3.8-3.8 3.8s-3.8-1.7-3.8-3.8v-37.6c0-2.1 1.7-3.8 3.8-3.8s3.8 1.7 3.8 3.8z" fill-rule="evenodd"/><path d="m50.2 61.3h13.9c1.9-.1 3.7-1.7 3.7-4.2v-.2c-.7-13.8-9.5-15.8-13.6-15.8-4.2 0-13.6 2.5-13.6 17.8.1 5.8 1.3 16.8 13.4 16.8 10.5 0 12.8-6.1 12.8-7.6 0-2.3-1.9-4.2-4-3.5-1.7.6-4.1 4.1-8 4.1-5.5 0-6.2-5-6.2-6.1 0-.9.5-1.2 1.6-1.3zm-1.6-6.7c.3-5.2 4.2-6.1 6-6.1s5.8.9 6 6.2c0 .3-.2.4-.3.4h-11.4c-.2 0-.3-.2-.3-.5zm-29.4 16.3-11.8-24.1c-.9-1.9-.1-4.3 1.8-5.2s4.3-.1 5.2 1.8l9.1 18.7 5.6-18.2c.6-2 2.8-3.2 4.9-2.6 2 .6 3.2 2.8 2.6 4.9 0 0-6.3 20.7-10.1 32.6-1.3 3.9-4.6 5.9-9.5 5.8s-5.6-3-5.1-4.9c.6-2.1 2.3-2.7 4-2.7 4.4-.1 5-2.7 3.3-6.1zm101.1-14.1c0-5-.6-11.8-6.9-14.7-3.5-1.7-7.9-1.6-11.2.3-.7.4-1.3.8-1.9 1.3-.4-1.7-1.9-2.9-3.7-2.9-2.1 0-3.8 1.7-3.8 3.8v37.6c0 2.1 1.7 3.8 3.8 3.8s3.8-1.7 3.8-3.8v-9.9s2.5 3.1 6.6 3.2c14.3.4 13.4-15.2 13.3-18.7zm-7.5 2.9c0 3 0 8.4-5.4 8.4s-5.4-5.4-5.4-8.4v-2.7c0-3 0-8.4 5.4-8.4s5.4 5.4 5.4 8.4z"/><path clip-rule="evenodd" d="m132.2 38.7 13.2 6.4c2.5 1.2 2.1 5-.6 5.7l-14.2 3.6c-1.8.4-3.5-.8-3.7-2.6-.4-3.9 0-7.7 1.2-11.3.5-1.8 2.5-2.6 4.1-1.8zm5.3 27.2 9.8-10.9c1.9-2.1 5.4-.7 5.3 2.1l-.5 14.7c-.1 1.8-1.7 3.2-3.5 2.9-3.8-.6-7.4-2.1-10.5-4.3-1.6-1.1-1.8-3.2-.6-4.5zm23.3-14.6 14 4.5c1.7.6 2.6 2.5 1.8 4.2-1.6 3.4-4 6.5-7 8.9-1.4 1.2-3.5.8-4.5-.7l-7.8-12.5c-1.5-2.3.8-5.2 3.5-4.4zm14.2-8.9-14.1 4c-2.7.8-4.9-2.3-3.3-4.6l8.2-12.2c1-1.5 3.1-1.8 4.5-.6 2.8 2.5 5.1 5.6 6.7 9.2.7 1.8-.3 3.7-2 4.2zm-33-34.2c-2.5.7-5 1.6-7.3 2.7-1.6.8-2.2 2.7-1.3 4.2l13.8 23.9c1.5 2.7 5.6 1.6 5.6-1.5v-27.6c0-1.8-1.5-3.2-3.3-3-2.4.2-5 .6-7.5 1.3z" fill-rule="evenodd"/></g></svg>