<svg version="1.1" id="Ebene_1" xmlns="http://www.w3.org/2000/svg" x="0" y="0" viewBox="0 0 106 39.6" xml:space="preserve"><style>.st0{fill:#fff}</style><path class="st0" d="M9 22.9c-.8.4-2.1 1.1-3.3 1.1-1.8.1-1.8-1.7-1.8-2.9 0-1.3.6-1.7 2-1.7H9v3.5zm4.2-7.3c0-4.2-1.6-6.1-6.9-6.1-1.9 0-4.2.3-5.8.8l.5 3.2c1.6-.3 3.2-.5 4.8-.5 2.7 0 3.2.5 3.2 2.4v.9H4.7c-3.4 0-4.7 2.4-4.7 5.9 0 2.9 1.3 5 4.4 5 1.7 0 3.5-.5 5-1.5l.3 1.3h3.4l.1-11.4zM26.8 22c-.9.8-2.4 1.5-3.8 1.5-1.6 0-2.1-.8-2.1-2.2v-6c0-1.5.6-2.1 2.1-2.1 1.2 0 2.7.2 3.8.5V22zm-10.2-.8c0 3.9 1.8 5.9 5.3 5.9 2.1 0 3.9-.7 5.4-1.8l.5 1.6h3.4V2.5l-4.3.6V10c-1.3-.3-3.1-.5-4.6-.5-4 0-5.7 2.1-5.7 5.9v5.8zM90.7 16v4.6c0 1.9-.9 2.9-3.1 2.9-2.3 0-3.1-1-3.1-2.9V16c0-1.9.9-2.9 3.1-2.9s3.1 1 3.1 2.9m4.2 4.4v-4.3c0-3.5-1.6-6.7-7.4-6.7-5.8 0-7.4 3.2-7.4 6.7v4.3c0 3.5 1.6 6.7 7.4 6.7 5.8 0 7.4-3.2 7.4-6.7m-32.1 1.2c-.2-3.5-.6-4.1-5.4-5.1-2.3-.5-2.4-.6-2.5-1.9 0-1 .2-1.5 2.1-1.6 1.3-.1 3.4.1 4.7.3l.3-3.4c-1.5-.3-3.5-.4-5.1-.4-4.8.2-6.2 1.8-6.1 5.2.2 3.3.7 4.3 4.9 5.1 2.8.5 3 1 3.1 2.1.1 1.3-.2 1.7-2.1 1.8-1.7.1-3.6-.1-5.1-.5l-.4 3.3c1.6.5 4.1.8 5.9.7 4.9-.3 5.8-2.4 5.7-5.6m14.8 0c-.2-3.5-.6-4.1-5.4-5.1-2.3-.5-2.4-.6-2.5-1.9 0-1 .2-1.5 2.1-1.6 1.3-.1 3.4.1 4.7.3l.3-3.4c-1.5-.3-3.5-.4-5.1-.4-4.8.2-6.2 1.8-6.1 5.2.2 3.3.7 4.3 4.9 5.1 2.8.5 3 1 3.1 2.1.1 1.3-.2 1.7-2.1 1.8-1.7.1-3.6-.1-5.1-.5l-.4 3.3c1.6.5 4.1.8 5.9.7 4.9-.3 5.9-2.4 5.7-5.6m-38.9-5.9c0-1.6.7-2.7 2.8-2.7 2.1 0 2.6 1.1 2.6 2.7v.8h-5.4v-.8zm0 5.1v-.9h9.4v-3.6c0-3.7-1.2-6.8-6.6-6.8-5.4 0-7 3-7 6.6v4.5c0 4.1 1.8 6.5 7.2 6.5 2 0 3.7-.2 5.6-.9l.4-3.2c-2.2.6-4 1-5.6.8-2.6-.2-3.4-.9-3.4-3M104.4 0v29.4L93.9 39.6h2.3l9.7-9.5V0h-1.5z"/></svg>