<svg version="1.1" id="Ebene_1" xmlns="http://www.w3.org/2000/svg" x="0" y="0" viewBox="0 0 691.7 88.3" xml:space="preserve"><style>.st0{fill:#fff}</style><path class="st0" d="M276.1.1h-3.9c-2.1 0-3 .9-3 3v13.6c-2.7-.7-7.1-1.8-12.4-1.8-12.9 0-19.8 6.9-19.8 19.9V48c0 12.8 7.2 19.6 20.8 19.6 8.4 0 13.8-1.7 17.1-3 3.3-1.3 4.1-2.5 4.1-5.8V3.1c0-2-.9-3-2.9-3zm-6.9 55.8c0 .8 0 .8-.8 1.1-2.7.9-6.2 1.5-9.8 1.5-7.8 0-11.6-3.5-11.6-10.7V35.1c0-7.5 3.6-11 11.4-11 4.7 0 8.5 1.2 10.8 1.9v29.9zm292.2-39.6h-11.5V3.1c0-2.1-.9-3-3-3H543c-2.1 0-2.9.9-2.9 3v13.2h-7c-2.1 0-3 .9-3 3v3.3c0 2.1.9 3 3 3h7v21.3c0 7.9 1.4 12.9 4.5 16.1 3 3.1 7.7 4.5 15.1 4.5h1.7c1.9-.1 3.1-.6 3.1-3v-3.4c0-2.2-.9-3-3.1-3-8.6 0-11.3-1.6-11.3-11.4V25.6h11.5c2 0 2.9-.9 2.9-3v-3.3c-.2-2.1-1.1-3-3.1-3zm66.7 0h-3.9c-2.1 0-3 .9-3 3v43.9c0 2.1.9 3 3 3h3.9c2.1 0 3-.9 3-3V19.3c0-2.1-.9-3-3-3zm-429.4-1.4c-13.6 0-21.7 7-21.7 18.7v15.3c0 11.5 8.3 18.7 21.7 18.7 13.7 0 21.8-7 21.8-18.7V33.6c.1-11.7-8.1-18.7-21.8-18.7zm12 34c0 6-4.5 9.6-12 9.6s-11.9-3.6-11.9-9.6V33.5c0-6 4.5-9.6 11.9-9.6 7.5 0 12 3.6 12 9.6v15.4zm286-34c-9.2 0-14.8 1.9-18.2 3.2-3.1 1.3-4 2.6-4 5.9v39.1c0 2.1.9 3 2.9 3h3.9c2.1 0 3-.9 3-3V26.6c0-.5.1-.8.6-1 3.4-1.1 7-1.6 10.6-1.6 7.5 0 11 3.3 11 10.4v28.7c0 2.1.9 3 3 3h3.9c2.1 0 3-.9 3-3v-29c.1-12.5-6.7-19.2-19.7-19.2zm-61.3 0c-13.9 0-21.9 7.6-21.9 20.8v11.6c0 13.1 7.7 20.2 21.6 20.2 10 0 17-3.4 20.8-10 .7-1.1.9-2 .7-2.8s-.8-1.4-1.8-1.9l-2.5-1.3c-.8-.5-1.5-.7-2-.7-1.2 0-2 .9-2.6 1.8-2.4 4.1-6.5 6.1-12.4 6.1-7.7 0-11.8-3.6-11.8-10.5v-3.8h29.8c2.8 0 4.2-1.4 4.2-4V35c-.1-12.6-8.3-20.1-22.1-20.1zm12.1 21.7h-24.2v-2c0-7.1 4.3-11.1 12.1-11.1s12.1 3.9 12.1 11.1v2zM318.7 14.9c-13.9 0-21.9 7.6-21.9 20.8v11.6c0 13.1 7.7 20.2 21.6 20.2 10 0 17-3.4 20.8-10 .7-1 .9-2 .7-2.8-.2-.8-.8-1.4-1.8-1.9l-2.5-1.3c-.8-.5-1.5-.7-2-.7-1.2 0-2 .9-2.6 1.8-2.4 4.1-6.5 6.1-12.4 6.1-7.7 0-11.8-3.6-11.8-10.5v-3.8h29.8c2.8 0 4.2-1.4 4.2-4V35c-.2-12.6-8.4-20.1-22.1-20.1zm12.1 21.7h-24.2v-2c0-7.1 4.3-11.1 12.1-11.1s12.1 3.9 12.1 11.1v2zm272.9-21.7h-3c-6.8.2-12.6 1.1-17.4 3-3.1 1.3-4 2.6-4 5.9v39.4c0 2.1.9 3 2.9 3h3.9c2.1 0 3-.9 3-3V26.8c0-.6 0-.9.8-1.2 3.4-1.1 6.8-1.6 10.6-1.6h3.3c2.1 0 3-.9 3-3v-3.2c-.1-2-.9-2.9-3.1-2.9z"/><linearGradient id="SVGID_1_" gradientUnits="userSpaceOnUse" x1="11.313" y1="2.495" x2="83.002" y2="74.185" gradientTransform="matrix(1 0 0 -1 0 82.49)"><stop offset=".05" stop-color="#fff"/><stop offset=".229" stop-color="#fff"/><stop offset=".744" stop-color="#fff"/><stop offset="1" stop-color="#fff"/></linearGradient><path d="M50.3 75.7c-.8-.8-2.1-.9-3.1-.2-4.4 3-9.4 4.3-13.8 4.3-14 0-25.3-11.5-25-25.6.3-13.6 11.8-24.4 25.4-24.4h26.8c2.6 0 4.8 1.8 5.2 4.4.4 3.1-2 5.7-5 5.7h-27c-7.3 0-13.5 5.7-13.8 13-.3 7.7 5.9 14 13.5 14h26.8c18.3 0 33.6-14.5 34-32.8C94.7 15.4 79.5 0 60.9 0 55.2 0 48 1.4 41.5 6.2c-1.2.9-1.3 2.6-.3 3.6l2.8 2.8c.8.8 2.1.9 3.1.2 4.4-3 9.4-4.3 13.8-4.3 14 0 25.3 11.5 25 25.6-.3 13.6-11.8 24.4-25.4 24.4H33.7c-2.6 0-4.8-1.8-5.2-4.4-.4-3.1 2-5.7 5-5.7h27c7.3 0 13.5-5.7 13.8-13 .3-7.7-5.9-14-13.5-14H34C15.7 21.4.4 35.9 0 54.2c-.4 18.7 14.8 34.1 33.4 34.1 5.7 0 12.9-1.4 19.4-6.2 1.2-.9 1.3-2.6.3-3.6l-2.8-2.8z" fill="url(#SVGID_1_)"/><path class="st0" d="M159.5 50s-3.2-1.2-4.5-1.2c-1.4 0-2 1.1-2.6 2.3-2.3 5-5.8 7.6-11.9 7.6-7.4 0-11.4-3.7-11.4-10.4V34.1c0-6.7 4-10.3 11.4-10.3 6.3 0 9.3 2.2 11.5 7.4.4 1 1.1 2.2 2.6 2.3 1.2.1 5.9-1.5 6.9-3 .4-.6.3-1.5-.1-2.6-1.9-6-7-13.1-20.5-13.1-14 0-21.7 7-21.7 19.6v13.4c0 12.7 7.5 19.7 21.2 19.7 11 0 18-4.4 21.2-13.4.9-2.5-.5-3.5-2.1-4.1zM396.2 50s-3.2-1.2-4.5-1.2c-1.4 0-2 1.1-2.6 2.3-2.3 5-5.8 7.6-11.9 7.6-7.4 0-11.4-3.7-11.4-10.4V34.1c0-6.7 4-10.3 11.4-10.3 6.3 0 9.3 2.2 11.5 7.4.4 1 1.1 2.2 2.6 2.3 1.2.1 5.9-1.5 6.9-3 .4-.6.3-1.5-.1-2.6-1.9-6-7-13.1-20.5-13.1-14 0-21.7 7-21.7 19.6v13.4c0 12.7 7.5 19.7 21.2 19.7 11 0 18-4.4 21.2-13.4.9-2.5-.5-3.5-2.1-4.1zM689.3 50s-3.2-1.2-4.5-1.2c-1.4 0-2 1.1-2.6 2.3-2.3 5-5.8 7.6-11.9 7.6-7.4 0-11.4-3.7-11.4-10.4V34.1c0-6.7 4-10.3 11.4-10.3 6.3 0 9.3 2.2 11.5 7.4.4 1 1.1 2.2 2.6 2.3 1.2.1 5.9-1.5 6.9-3 .4-.6.3-1.5-.1-2.6-1.9-6-7-13.1-20.5-13.1-14 0-21.7 7-21.7 19.6v13.4c0 12.7 7.5 19.7 21.2 19.7 11 0 18-4.4 21.2-13.4 1-2.5-.5-3.5-2.1-4.1z"/></svg>