<svg xmlns="http://www.w3.org/2000/svg" viewBox="0 0 528.42 85.04"><style>.st0{fill:#fff}.st1{display:none}.st2{display:inline;fill:#009de2}</style><g id="Layer_1"><path class="st0" d="M0 54.42V34.28l7.59-7.59h27.88v7.1H10.24l-2.89 2.89v15.34l2.89 2.89h25.24v7.11H7.59L0 54.42zM46.16 26.69h36.41v35.33H46.16V26.69zm29.05 28.22V33.79h-21.7v21.12h21.7zM96.04 26.69h28.62l7.2 7.5v14.8h-9.75l13.13 13.03h-9.31l-12.94-12.89h-9.7v12.89h-7.25V26.69zm28.76 15.04v-5.59l-2.01-2.11h-19.5v7.69h21.51zM145.43 26.69h34.99v7.25h-27.39v6.96h20.92v6.91h-20.92v6.86h27.39v7.35h-34.99V26.69zM193.17 26.69h39.89l7.35 7.55v27.78h-7.06V36.73l-2.89-2.79h-10.04v28.08h-7.11V33.94h-13.03v28.08h-7.1V26.69zM253.68 26.69h34.99v7.25h-27.39v6.96h20.92v6.91h-20.92v6.86h27.39v7.35h-34.99V26.69zM300.72 26.69h30.18l7.6 7.59v20.14l-7.6 7.59h-30.18V26.69zm27.54 28.22l2.89-2.89V36.69l-2.89-2.89h-20.19v21.12h20.19zM350.55 26.69h7.35v35.33h-7.35V26.69zM371.38 26.69h28.67l7.59 7.59v27.73h-7.1V48.45h-22.05v13.57h-7.1V26.69zm29.15 14.7v-5.24l-2.3-2.35h-19.75v7.6h22.05zM517.96 14.61v8.2h-2.14v-7.67l-.88-.85h-3.05v8.51h-2.15v-8.5h-3.95v8.51h-2.15V12.1h11.95C507.93 4.62 497.46 0 485.9 0c-23.48 0-42.52 19.04-42.52 42.52s19.04 42.52 42.52 42.52S528.42 66 528.42 42.52c0-10.69-3.95-20.44-10.46-27.91zm-14.32 17.35H478.4l-2.89 2.89v15.34l2.89 2.89h25.24v7.11h-27.88l-7.59-7.59V32.45l7.59-7.59h27.88v7.1z"/></g><g id="Schutzraum" class="st1"><circle class="st2" cx="281.99" cy="-15.83" r="42.52"/><circle class="st2" cx="281.99" cy="104.54" r="42.52"/><circle class="st2" cx="-42.52" cy="45.83" r="42.52"/><circle class="st2" cx="570.94" cy="45.83" r="42.52"/><path d="M407.91 54.42V34.28l7.59-7.59h27.88v7.1h-25.24l-2.89 2.89v15.34l2.89 2.89h25.24v7.11H415.5l-7.59-7.6z" fill="#e4007d"/></g><path d="M578.9 137.08v8.75h-2.86v-8.28h-3.25v8.28h-2.86v-8.28h-3.28v8.28h-2.86V134.7h12.91c-7.94-8.03-18.97-13.01-31.16-13.01-24.2 0-43.83 19.62-43.83 43.83 0 24.21 19.63 43.83 43.83 43.83 24.21 0 43.83-19.62 43.83-43.83.01-10.86-3.94-20.79-10.47-28.44zm-15.01 19.37h-28.82l-2.46 2.47V172l2.46 2.47h28.82v8.72h-31.92l-8.52-8.51v-18.31l8.52-8.51h31.92v8.59z" fill="#1a1a18" id="Ebene_2"/></svg>