<svg xmlns="http://www.w3.org/2000/svg" height="1487.075" width="2030.325"><defs><clipPath id="a" clipPathUnits="userSpaceOnUse"><path d="M0 0h14663v10739.9H0V0z"/></clipPath></defs><g clip-path="url(#a)" fill="#fff" transform="matrix(.14 0 0 -.14 0 1487.075)"><path d="M1623.75 1299.81c-33.22 323.91-224.25 577.24-556.48 577.24-307.297 0-523.254-236.72-568.934-577.24H1623.75zM0 1137.85v8.31c0 627.07 444.352 1142.02 1071.43 1142.02 697.66 0 1050.66-548.17 1050.66-1179.4 0-45.68-4.16-91.36-8.31-141.19H502.492c53.985-357.137 307.313-556.469 631.218-556.469 245.02 0 419.44 91.359 593.86 261.621l294.85-261.621C1814.77 161.957 1528.23 0 1125.41 0 490.031 0 0 460.953 0 1137.85M2283.96 473.414l307.31 365.441c278.25-240.859 560.63-377.902 917.77-377.902 315.61 0 514.94 149.5 514.94 365.442v8.308c0 207.637-116.26 319.757-656.14 444.337-618.76 149.5-967.6 332.22-967.6 867.94v8.31c0 498.34 415.29 843.01 992.53 843.01 423.58 0 759.95-128.73 1054.8-365.44l-274.09-386.21c-261.62 195.18-523.24 299-789.02 299-299.01 0-473.42-153.65-473.42-344.68v-8.31c0-224.25 132.88-323.92 693.51-456.8 614.62-149.51 930.23-369.61 930.23-851.329v-8.304c0-544.008-427.73-867.922-1038.19-867.922-444.36 0-863.79 153.652-1212.63 465.109M6247.14 838.855v149.497c-128.73 49.828-299 87.208-498.33 87.208-323.92 0-514.95-137.04-514.95-365.443v-8.304c0-211.79 186.87-332.219 427.74-332.219 332.22 0 585.54 191.027 585.54 469.261m-1503.3-157.804v8.304c0 473.415 369.59 705.965 905.3 705.965 245.01 0 419.44-37.37 589.7-91.36v53.99c0 311.45-191.04 477.57-544.02 477.57-245.01 0-427.74-53.98-627.07-137.05L4934.86 2093c240.86 107.98 477.57 178.56 826.41 178.56 328.07 0 573.08-87.21 726.73-245.01 161.97-157.81 236.72-390.37 236.72-676.91V49.832h-490.03v274.082C6085.19 145.348 5856.78 4.152 5520.41 4.152c-411.13 0-776.57 236.707-776.57 676.899M7175.31 49.832h502.492v2192.68H7175.31V49.832zM7715.45 2810.52c0-159.54-129.34-288.89-288.89-288.89-159.55 0-288.89 129.35-288.89 288.89 0 159.55 129.34 288.89 288.89 288.89 159.55 0 288.89-129.34 288.89-288.89M8146.3 49.832h502.48v3031.53H8146.3V49.832zM10783.5 1133.7v8.3c0 386.21-278.2 705.97-672.8 705.97-402.77 0-660.24-315.61-660.24-697.66V1142c0-382.047 278.23-701.809 668.64-701.809 406.9 0 664.4 315.61 664.4 693.509m-1835.51 0v8.3c0 627.07 498.31 1146.19 1171.11 1146.19 672.7 0 1166.9-510.81 1166.9-1137.88V1142c0-622.906-498.4-1142-1175.3-1142-668.55 0-1162.71 510.789-1162.71 1133.7M11589.9 2242.5h502.5v-494.19c137.1 328.08 390.4 552.32 776.6 535.71v-531.56h-29.1c-440.2 0-747.5-286.54-747.5-867.929V49.832h-502.5V2242.5M12919.2 336.371l224.2 340.524c240.9-178.567 494.2-269.926 718.4-269.926 216 0 340.6 91.359 340.6 236.707v8.304c0 170.262-232.6 228.399-490.1 307.301-323.9 91.359-685.2 224.249-685.2 643.679v8.3c0 415.3 344.7 668.6 780.8 668.6 274 0 573-95.51 805.6-249.15l-199.3-357.16c-211.8 128.76-436.1 207.64-618.8 207.64-195.2 0-307.3-91.34-307.3-215.94v-8.31c0-161.96 236.7-228.4 494.2-311.45 319.7-99.67 681-245.01 681-639.525v-8.305c0-460.953-357.1-689.355-813.9-689.355-311.5 0-656.1 112.125-930.2 328.066"/><path d="M6249.48 4927.67c-331.04 139.99-628.46 340.5-883.97 595.97-255.5 255.45-456.05 552.79-596.06 883.75-35.94 84.97-67.47 171.26-94.58 258.73 493.65-168.21 1022.9-259.53 1573.49-259.53 226.64 0 449.66 15.54 668.08 45.46 266.14-742.9 926.6-1298.05 1729.24-1413.41-75.29-40.38-152.55-77.46-231.81-110.97-342.5-144.84-706.6-218.28-1082.19-218.28-375.59 0-739.7 73.44-1082.2 218.28M4551.15 7489.28c0 375.51 73.45 739.59 218.32 1082.13 140.04 331.13 340.61 628.63 596.13 884.25 255.54 255.63 552.95 456.27 883.99 596.34 342.49 145 706.56 218.4 1082.09 218.4 375.52 0 739.58-73.4 1082.07-218.4 331.05-140.07 628.48-340.71 884.05-596.34a2835.503 2835.503 0 0 0 149.41-161.87c-157.62 36.52-321.84 55.83-490.55 55.83-1196.6 0-2166.64-970.69-2166.64-2167.07 0-98.19 6.66-194.82 19.32-289.55-184.85-23.29-372.01-35.02-560.98-35.02-582.56 0-1147.88 111.2-1681.06 330.47-10.64 99.33-16.15 199.64-16.15 300.83m4825.19 664.09c-406.41-406.33-879.54-725.28-1406.24-948.01-232.85-98.46-471.94-176.12-716.01-232.87a1742.13 1742.13 0 0 0-12.69 210.06c0 458.14 178.44 888.94 502.45 1213.06 324.01 324.12 754.73 502.62 1212.81 502.62 307.29 0 602.31-80.45 861.05-231.2-133.07-181.14-280.32-352.66-441.37-513.66m735.86-664.09c0-375.48-73.4-739.47-218.3-1081.89-140.02-330.96-340.52-628.3-596.1-883.75-9.21-9.29-18.69-18.35-28.07-27.48a1736.11 1736.11 0 0 0-313.07-28.45c-458.18 0-888.93 178.39-1212.91 502.3-164.5 164.48-291.38 356.52-376.52 565.65 1060.21 248.95 1986.99 843.88 2654.77 1659.17 59.9-228.72 90.2-464.76 90.2-705.55M7412.33 4240.95c23.92.59 47.77 1.46 71.54 2.56 2.81.13 5.64.24 8.45.37 23.14 1.13 46.22 2.53 69.23 4.14 3.35.23 6.71.46 10.06.7a3365.722 3365.722 0 0 1 78.46 6.68c22.5 2.19 44.95 4.6 67.32 7.25 3.4.4 6.79.81 10.17 1.23 22.55 2.73 45.04 5.69 67.46 8.88 2.98.43 5.94.88 8.91 1.31 22.88 3.33 45.7 6.86 68.42 10.67 2.13.36 4.27.74 6.42 1.1 23.56 4 47.05 8.21 70.45 12.7.77.16 1.55.32 2.33.46 24.31 4.71 48.54 9.66 72.65 14.89.18.04.35.07.52.11 23.73 5.16 47.35 10.6 70.87 16.27 1.52.36 3.04.71 4.55 1.07 22.71 5.51 45.32 11.28 67.83 17.25 2.24.6 4.48 1.19 6.71 1.78a3227.97 3227.97 0 0 1 65.97 18.44c2.54.74 5.08 1.47 7.62 2.22 21.74 6.37 43.39 12.98 64.94 19.79 2.52.81 5.06 1.61 7.58 2.41 21.64 6.91 43.18 14.03 64.62 21.38 2.24.76 4.47 1.54 6.71 2.3 21.77 7.52 43.46 15.25 65.03 23.21 1.61.58 3.2 1.19 4.8 1.78 22.23 8.25 44.35 16.71 66.34 25.42.56.22 1.11.44 1.67.66a3237.79 3237.79 0 0 1 202.53 88.5c.56.27 1.11.53 1.67.8 21.47 10.28 42.8 20.82 64.01 31.56 1.12.56 2.23 1.12 3.34 1.68a3223.3 3223.3 0 0 1 62.28 32.5c1.3.69 2.61 1.39 3.91 2.09 20.58 11.05 41.01 22.32 61.33 33.8 1.18.68 2.37 1.36 3.56 2.02 20.49 11.63 40.86 23.46 61.07 35.5.8.48 1.59.96 2.39 1.44 20.65 12.33 41.12 24.87 61.52 37.64.09.06.18.12.27.17 103.91 65.27 203.85 136.24 299.45 212.49.28.27.64.54 1 .81 18.77 14.98 37.28 30.16 55.7 45.54.54.41.99.82 1.53 1.23 18.33 15.37 36.57 30.93 54.62 46.7.36.35.72.69 1.17 1.03 18.24 15.95 36.21 32.07 54.08 48.41 296.83 271.64 543.01 597.66 722.81 962.29 6.5 13.09 12.9 26.24 19.2 39.44.4 1.04 1 2.09 1.4 3.12 5.9 12.35 11.7 24.74 17.4 37.17.6 1.25 1.2 2.52 1.8 3.77 5.8 12.74 11.5 25.53 17.2 38.36.3.62.6 1.26.9 1.9 24.2 54.76 46.9 110.33 68.1 166.63.4 1.21.9 2.42 1.3 3.63 4.7 12.5 9.3 25.01 13.8 37.57.9 2.08 1.6 4.17 2.3 6.24 4.3 11.94 8.5 23.91 12.6 35.92.8 2.16 1.6 4.32 2.3 6.48 4.2 12.45 8.5 24.9 12.5 37.41.6 1.52 1.1 3.05 1.6 4.58 14.1 42.8 27.2 85.98 39.5 129.53.4 1.28.6 2.57 1 3.86 3.6 12.75 7.1 25.53 10.6 38.35.8 2.94 1.5 5.88 2.3 8.82 3 11.28 5.9 22.58 8.8 33.9.9 3.52 1.7 7.04 2.6 10.57 2.7 10.95 5.4 21.93 8 32.93.8 3.56 1.7 7.1 2.6 10.66 2.7 11.5 5.3 23.02 7.8 34.55.7 2.92 1.4 5.83 2 8.75 3.2 14.23 6.2 28.5 9.1 42.81 0 .11.1.23.1.33 3.1 15.11 6.1 30.26 9 45.46.1.38.1.78.2 1.18 2.7 13.97 5.2 27.98 7.7 42.01.7 3.71 1.2 7.43 2 11.14 1.8 10.77 3.7 21.57 5.4 32.39.7 4.67 1.5 9.36 2.2 14.04 1.6 9.98 3.1 19.97 4.6 29.98.8 4.99 1.5 9.97 2.2 14.97 1.5 9.9 2.8 19.82 4.2 29.75.6 4.92 1.3 9.83 2 14.75 1.3 10.52 2.6 21.05 3.8 31.6.6 4.26 1.1 8.51 1.6 12.77 1.6 13.63 3 27.29 4.5 40.98.1 1.12.3 2.24.3 3.36 1.6 14.97 3 29.99 4.3 45.02.4 3.73.6 7.45.9 11.18 1 11.08 1.9 22.17 2.7 33.29.4 5.33.7 10.68 1.1 16.01.7 9.61 1.3 19.21 1.9 28.84.3 5.8.7 11.62 1 17.44.5 9.24 1 18.5 1.4 27.76.3 5.96.6 11.91.8 17.87.4 9.36.8 18.73 1 28.11l.6 17.23c.2 10.18.4 20.37.7 30.57l.3 14.79c.1 15.09.2 30.19.2 45.33 0 21.47-.2 42.87-.6 64.23-.1 3.28-.2 6.54-.2 9.82-.5 21.19-1.2 42.34-2.1 63.43-.1 2.08-.1 4.16-.2 6.24-2 45.24-4.9 90.25-8.7 135-42.6 501.84-199.3 971.25-444.1 1382.17-8.5 14.25-17 28.41-25.8 42.51-.5.92-1.1 1.84-1.6 2.76-26.7 43.19-54.4 85.7-83 127.51-.7 1-1.3 2-2.1 2.99-28.57 41.69-58.09 82.68-88.61 122.93-.72 1.05-1.53 2.09-2.34 3.14a3252.337 3252.337 0 0 1-93.98 118.15c-.91 1.12-1.9 2.23-2.8 3.35a3365.628 3365.628 0 0 1-99.13 113.12c-1.08 1.2-2.25 2.41-3.34 3.6-33.85 36.76-68.52 72.73-103.9 107.9-1.36 1.27-2.62 2.54-3.89 3.81a2969.825 2969.825 0 0 1-34.12 33.22c-.36.37-.72.73-1.08 1.08-24.11 23.11-48.66 45.85-73.4 68.22-1.53 1.32-2.98 2.64-4.42 3.97-11.38 10.23-22.93 20.39-34.4 30.48-.9.75-1.8 1.51-2.61 2.26-25.01 21.78-50.38 43.19-76.02 64.23-1.71 1.4-3.34 2.7-5.05 4.1-11.47 9.4-23.02 18.7-34.67 27.9-1.35 1.1-2.71 2.1-3.98 3.2-25.9 20.4-51.99 40.5-78.44 60.1-1.99 1.4-3.89 2.8-5.78 4.3-11.56 8.5-23.2 17-34.94 25.4-1.8 1.3-3.52 2.6-5.32 3.9-26.64 19-53.54 37.7-80.8 56-2.17 1.4-4.25 2.8-6.41 4.3-11.65 7.7-23.38 15.4-35.12 23.1-2.26 1.4-4.42 2.9-6.68 4.3-27.35 17.7-55.07 35-82.97 51.9-2.34 1.4-4.71 2.8-7.05 4.2-11.75 7-23.52 14-35.34 20.9-2.68 1.6-5.35 3.1-8.03 4.7-28.08 16.3-56.41 32.1-85.01 47.6-2.51 1.4-5.05 2.7-7.55 4-11.84 6.4-23.71 12.7-35.64 18.9-3.09 1.6-6.19 3.2-9.29 4.8-14.07 7.3-28.17 14.5-42.36 21.5-.07.1-.14.1-.2.2-14.72 7.3-29.49 14.5-44.34 21.6-2.71 1.3-5.44 2.6-8.17 3.9-11.91 5.7-23.86 11.2-35.86 16.8-3.49 1.6-6.97 3.2-10.47 4.8-13.43 6.1-26.91 12.2-40.44 18.1-1.1.5-2.19 1-3.28 1.5-14.96 6.6-29.97 13-45.04 19.4-2.8 1.1-5.61 2.3-8.42 3.5-12.11 5-24.25 10-36.44 14.9-3.8 1.5-7.62 3.1-11.43 4.6-12.99 5.2-26 10.3-39.06 15.3-1.93.7-3.86 1.5-5.8 2.2-15.16 5.8-30.39 11.5-45.65 17.1-2.92 1-5.86 2.1-8.77 3.1-12.29 4.4-24.6 8.8-36.94 13.1-4.1 1.4-8.2 2.8-12.31 4.3-12.64 4.3-25.3 8.6-38.01 12.7-2.66.9-5.3 1.8-7.96 2.7-15.37 5-30.8 9.9-46.26 14.7l-8.9 2.7c-12.48 3.8-24.99 7.6-37.55 11.2-4.39 1.3-8.79 2.6-13.19 3.9-12.35 3.6-24.73 7-37.12 10.5-3.3.9-6.58 1.8-9.88 2.7-15.58 4.2-31.21 8.4-46.88 12.4-2.85.7-5.72 1.4-8.57 2.1-12.83 3.3-25.7 6.5-38.59 9.6-4.61 1.1-9.24 2.2-13.86 3.3-12.18 2.8-24.41 5.6-36.65 8.4-3.77.8-7.54 1.7-11.32 2.5-15.79 3.5-31.62 6.8-47.51 10.1-2.68.5-5.4 1-8.09 1.6-13.24 2.6-26.5 5.2-39.79 7.7-4.79.9-9.6 1.8-14.41 2.7-12.07 2.2-24.17 4.3-36.29 6.4-4.21.8-8.41 1.5-12.63 2.2-15.99 2.7-32.01 5.3-48.06 7.7-2.46.4-4.91.7-7.37 1.1-13.71 2.1-27.45 4-41.22 5.9-4.93.7-9.86 1.3-14.8 2-12.06 1.6-24.14 3.1-36.24 4.6-4.53.5-9.05 1.1-13.6 1.6-16.22 1.9-32.46 3.7-48.75 5.3l-5.76.6c-14.46 1.4-28.94 2.7-43.44 4-5 .4-9.98.8-14.99 1.2-12.12 1-24.25 1.9-36.41 2.8-4.78.3-9.55.7-14.35 1-16.43 1.1-32.91 2-49.41 2.9-1.15 0-2.3.1-3.44.1-15.41.8-30.85 1.4-46.31 2-5.04.2-10.09.3-15.13.5l-36.66.9-14.92.3c-16.68.2-33.38.4-50.11.4-476.77 0-929.57-102.7-1337.48-287.3-24-10.8-47.84-22-71.52-33.4-11.84-5.7-23.64-11.5-35.4-17.3-23.52-11.7-46.88-23.7-70.07-35.9-23.19-12.3-46.21-24.8-69.07-37.6a3224.42 3224.42 0 0 1-265.83-166c-10.72-7.4-21.38-14.9-31.99-22.4-21.25-15.1-42.29-30.5-63.15-46.1-10.43-7.8-20.81-15.7-31.14-23.6-774.76-594.24-1274.32-1529.51-1274.32-2581.02 0-22.1.29-44.13.72-66.14 3.66-183.2 22.47-362.69 55.26-537.26h.01c4.37-23.28 9-46.47 13.87-69.57l.32-1.57c19.62-92.9 43.21-184.33 70.58-274.11.12-.44.26-.86.39-1.29 6.82-22.35 13.86-44.58 21.16-66.72.01-.05.03-.11.05-.17a3228.026 3228.026 0 0 1 72.31-197.65c.11-.26.22-.53.33-.81 8.62-21.36 17.47-42.61 26.53-63.76.2-.44.39-.89.58-1.34 27.5-64.08 57.02-127.1 88.45-188.99.01-.02.01-.04.02-.04 10.35-20.39 20.92-40.64 31.69-60.76.35-.65.7-1.31 1.04-1.96a3246.828 3246.828 0 0 1 140.03-236.66c.52-.8 1.03-1.6 1.56-2.39 12.2-18.74 24.59-37.33 37.16-55.79.42-.62.84-1.23 1.26-1.85a3261.65 3261.65 0 0 1 120.41-165.11c.63-.8 1.26-1.62 1.88-2.42 13.55-17.36 27.26-34.57 41.14-51.64.83-1.02 1.66-2.04 2.49-3.05 14.07-17.28 28.31-34.42 42.73-51.39.05-.07.11-.13.17-.2 29.37-34.58 59.48-68.53 90.26-101.84.66-.69 1.29-1.4 1.94-2.09 14.79-15.98 29.74-31.8 44.85-47.47 1.23-1.28 2.44-2.54 3.67-3.81 15.08-15.59 30.3-31.05 45.68-46.34.82-.82 1.65-1.63 2.48-2.45 31.84-31.58 64.32-62.51 97.42-92.76.48-.44.95-.88 1.43-1.31 16.02-14.63 32.21-29.06 48.52-43.37 1.53-1.34 3.05-2.67 4.58-4 16.03-14 32.19-27.85 48.5-41.55 1.49-1.24 2.98-2.49 4.48-3.74a3250.63 3250.63 0 0 1 50.59-41.5c.21-.17.42-.33.64-.5 17.74-14.25 35.65-28.31 53.7-42.2.08-.05.16-.12.25-.17 17.24-13.26 34.64-26.31 52.16-39.22 1.71-1.28 3.43-2.55 5.14-3.81 16.96-12.44 34.04-24.72 51.24-36.85 2.03-1.43 4.08-2.86 6.13-4.3 17.37-12.19 34.86-24.22 52.47-36.07 1.27-.85 2.55-1.69 3.81-2.54 36.42-24.42 73.36-48.12 110.8-71.09 1.76-1.07 3.5-2.15 5.25-3.23a3248.17 3248.17 0 0 1 53.92-32.19c2.49-1.45 4.97-2.91 7.46-4.35 18.01-10.46 36.12-20.77 54.35-30.89 2.1-1.18 4.22-2.33 6.33-3.5 18.95-10.46 37.99-20.79 57.16-30.89.13-.06.26-.14.4-.21 19.38-10.2 38.89-20.19 58.5-30.01 1.57-.78 3.11-1.58 4.67-2.36 18.81-9.38 37.73-18.55 56.73-27.58 2.75-1.29 5.48-2.6 8.23-3.89 18.66-8.81 37.44-17.43 56.3-25.88 2.77-1.24 5.55-2.47 8.32-3.71 19.28-8.57 38.64-16.99 58.11-25.2 1.48-.63 2.96-1.23 4.44-1.84 19.74-8.29 39.56-16.39 59.49-24.3 1.06-.41 2.11-.84 3.16-1.26 19.79-7.82 39.69-15.41 59.66-22.85 2.85-1.06 5.7-2.13 8.54-3.19 19.35-7.15 38.8-14.11 58.33-20.9 3.23-1.11 6.46-2.23 9.69-3.34 19.69-6.78 39.45-13.39 59.3-19.79 2.45-.79 4.91-1.56 7.36-2.34 41.54-13.29 83.44-25.76 125.69-37.41 2.72-.74 5.42-1.51 8.14-2.25 20.08-5.48 40.24-10.75 60.47-15.84 3.54-.9 7.05-1.78 10.59-2.66 20.13-5 40.32-9.83 60.6-14.45 3.16-.72 6.33-1.42 9.5-2.13 21.01-4.73 42.08-9.3 63.26-13.61 1.12-.24 2.26-.46 3.39-.68 20.99-4.26 42.06-8.29 63.18-12.14 2.32-.43 4.63-.87 6.95-1.29 20.87-3.76 41.82-7.27 62.82-10.63 3.61-.58 7.23-1.17 10.85-1.73 20.64-3.23 41.34-6.26 62.11-9.1 3.61-.48 7.24-.96 10.86-1.44 21.21-2.83 42.47-5.48 63.8-7.9 2.29-.25 4.59-.49 6.89-.74 21.41-2.37 42.88-4.55 64.41-6.51 1.5-.13 2.99-.3 4.5-.42 21.76-1.95 43.6-3.63 65.47-5.15 3.48-.24 6.96-.5 10.43-.73 21.2-1.4 42.46-2.58 63.77-3.58 3.89-.18 7.78-.35 11.67-.51 21.48-.92 43-1.67 64.58-2.17 3.05-.08 6.11-.11 9.16-.18 22.72-.47 45.48-.76 68.3-.76 25.14 0 50.21.33 75.21.9 1.82.04 3.64.05 5.44.1" fill-rule="evenodd"/></g></svg>