<svg xmlns="http://www.w3.org/2000/svg" viewBox="0 0 594.8 80.3"><path d="M306.25 11.25c4.584 0 6.667 2.917 7.084 9.583 0 .834.416 1.25 1.25.834L323.75 20c.834 0 .834-.833.834-1.25-.417-12.917-7.5-18.75-18.75-18.75-9.584 0-15.417 4.583-17.917 12.083-.833 3.334-1.667 6.25-1.667 28.334 0 21.666.417 25 1.667 28.333 2.5 7.5 8.333 12.083 17.917 12.083 11.25 0 18.333-5.833 18.75-18.75 0-.833 0-1.25-.834-1.25l-9.166-1.666c-.834 0-1.25.416-1.25.833-.417 6.667-2.5 9.583-7.084 9.583-3.333 0-5.416-1.666-6.25-4.166-.416-1.667-.833-3.334-.833-24.584s.417-22.916.833-24.583c.834-3.75 2.917-5 6.25-5zm86.667 25h-4.167c-.416 0-.833-.417-.833-.833v-22.5c0-.417.417-.834.833-.834h4.167c7.083 0 10 2.917 10 12.084 0 9.583-3.333 12.083-10 12.083zm12.917 7.917c5.833-3.334 9.166-9.584 9.166-20C415 7.083 406.667.833 392.5.833h-15.833c-.833 0-1.25.417-1.25 1.25v75.834c0 .833.417 1.25 1.25 1.25h10c.833 0 1.25-.417 1.25-1.25v-30c0-.417.417-.834.833-.834h5.834l9.583 31.25c.417.417.417.834 1.25.834h10.833c.417 0 .834-.417.417-1.25l-10.833-33.75zM367.917.833h-10c-.833 0-1.25.417-1.25 1.25v30.834c0 .416-.417.833-.833.833H342.5c-.416 0-.833-.417-.833-.833V2.083c0-.833-.417-1.25-1.25-1.25h-10c-.833 0-1.25.417-1.25 1.25v75.834c0 .833.417 1.25 1.25 1.25h10c.833 0 1.25-.417 1.25-1.25v-32.5c0-.417.417-.834.833-.834h13.334c.416 0 .833.417.833.834v32.5c0 .833.417 1.25 1.25 1.25h10c.833 0 1.25-.417 1.25-1.25V2.083c-.417-.416-.833-1.25-1.25-1.25zm67.5 51.25l5.833-29.166h.417l5.417 29.166h-11.667zm12.083-50c0-.833-.416-1.25-1.25-1.25h-9.583c-.833 0-.833.417-1.25 1.25l-17.083 75.834c0 .833.416 1.25.833 1.25h9.583c.834 0 1.25-.417 1.25-1.25l3.334-15.417h15.416l2.917 15.833c0 .834.417 1.25 1.25 1.25h9.583c.834 0 .834-.416.834-1.25L447.5 2.083zM570.834 36.25h-4.167c-.417 0-.833-.417-.833-.833v-22.5c0-.417.416-.834.833-.834h4.167c7.083 0 10 2.917 10 12.084 0 9.583-2.917 12.083-10 12.083zm23.75 42.083l-11.25-33.75c5.833-3.333 9.166-9.583 9.166-20C592.5 7.5 584.167 1.25 570 1.25h-15.833c-.833 0-1.25.417-1.25 1.25v75.833c0 .834.417 1.25 1.25 1.25h10c.833 0 1.25-.416 1.25-1.25v-30c0-.416.417-.833.833-.833h5.834l9.583 31.25c.417.417.417.833 1.25.833h10.833c.834-.416 1.25-.833.834-1.25zm-47.5-77.5H515c-.833 0-1.25.417-1.25 1.25v75.834c0 .833.417 1.25 1.25 1.25h32.084c.833 0 1.25-.417 1.25-1.25v-8.75c0-.834-.417-1.25-1.25-1.25h-20.417c-.417 0-.833-.417-.833-.834v-21.25c0-.416.416-.833.833-.833h17.5c.833 0 1.25-.417 1.25-1.25v-8.333c0-.834-.417-1.25-1.25-1.25h-17.5c-.417 0-.833-.417-.833-.834V12.917c0-.417.416-.834.833-.834h20.417c.833 0 1.25-.416 1.25-1.25v-8.75c-.417-.416-.834-1.25-1.25-1.25zM493.75 62.5c-1.25 3.75-3.75 5.833-8.333 5.833h-5c-.417 0-.833-.416-.833-.833V12.917c0-.417.416-.834.833-.834h5c4.167 0 7.083 1.667 8.333 5.834.834 2.916 1.25 6.666 1.25 22.5 0 15.416-.416 19.166-1.25 22.083zM486.667.833H468.75c-.833 0-1.25.417-1.25 1.25v75.834c0 .833.417 1.25 1.25 1.25h17.917c10.417 0 16.25-4.167 19.167-12.5 1.25-4.167 2.083-9.584 2.083-26.667 0-17.083-.417-22.5-2.083-26.667-2.917-8.333-8.75-12.5-19.167-12.5zm-334.584 0h-8.333c-.833 0-1.25.417-1.25 1.25V56.25h-.833L127.083 2.083c-.416-.833-.833-1.25-1.666-1.25h-12.084c-.833 0-1.25.417-1.25 1.25v75.834c0 .833.417 1.25 1.25 1.25h8.334c.833 0 1.25-.417 1.25-1.25V23.75h.833l15 54.167c.417.833.833 1.25 1.667 1.25h11.25c.833 0 1.25-.417 1.25-1.25V2.083c.416-.416-.417-1.25-.834-1.25zm-96.25 0h-10c-.833 0-1.25.417-1.25 1.25v75.834c0 .833.417 1.25 1.25 1.25h10c.834 0 1.25-.417 1.25-1.25V2.083c0-.416-.416-1.25-1.25-1.25zm137.917 0h-32.083c-.834 0-1.25.417-1.25 1.25v75.834c0 .833.416 1.25 1.25 1.25h32.083c.833 0 1.25-.417 1.25-1.25v-8.75c0-.834-.417-1.25-1.25-1.25h-20.417c-.416 0-.833-.417-.833-.834v-21.25c0-.416.417-.833.833-.833h17.5c.834 0 1.25-.417 1.25-1.25v-8.333c0-.834-.416-1.25-1.25-1.25h-17.5c-.416 0-.833-.417-.833-.834V12.917c0-.417.417-.834.833-.834h20.417c.833 0 1.25-.416 1.25-1.25v-8.75c0-.416-.417-1.25-1.25-1.25zm74.167 32.917l-4.583-1.667c-6.25-2.5-7.5-4.583-7.5-11.666 0-6.25 2.5-9.584 7.083-9.584 5 0 7.083 3.75 7.5 10 0 .834.417.834 1.25.834l9.167-1.25c.833-.417.833-.417.833-1.25C281.25 7.083 275.417 0 262.5 0c-12.916 0-19.166 7.5-19.166 20.833 0 12.084 3.333 17.917 14.166 22.084l4.584 1.666c6.25 2.5 7.916 5 7.916 13.75 0 8.334-2.5 11.25-7.5 11.25-5.416 0-7.916-3.333-7.916-11.666 0-.834-.417-1.25-1.25-.834l-9.584 1.667c-.833 0-.833.417-.833 1.25.417 13.75 7.083 20.417 19.583 20.417 15 0 20-7.917 20-23.334 0-13.75-4.166-19.166-14.583-23.333zm-50.833 2.5h-4.167c-.417 0-.833-.417-.833-.833v-22.5c0-.417.416-.834.833-.834h4.167c7.083 0 10 2.917 10 12.084 0 9.583-3.334 12.083-10 12.083zM230 44.167c5.834-3.334 9.167-9.584 9.167-20 0-17.084-8.333-23.334-22.5-23.334h-15.834c-.833 0-1.25.417-1.25 1.25v75.834c0 .833.417 1.25 1.25 1.25h10c.834 0 1.25-.417 1.25-1.25v-30c0-.417.417-.834.834-.834h5.833l9.584 31.25c.416.834.833.834 1.25.834h10.833c.417 0 .833-.417.417-1.25L230 44.167zM25.417 33.75l-5-1.667c-5.834-2.5-7.5-4.583-7.5-11.666 0-6.25 2.5-9.584 7.083-9.584 5 0 7.083 3.75 7.5 10 0 .834.417.834 1.25.834l9.167-1.25c.833-.417.833-.417.833-1.25C38.333 7.083 32.5 0 19.583 0 7.083 0 .833 7.5.833 20.833.833 32.917 4.167 38.75 15 42.917l4.583 1.666c6.25 2.5 7.5 5.417 7.5 13.75 0 8.334-2.5 11.25-7.5 11.25-5.416 0-7.916-3.333-7.916-11.666 0-.834-.417-1.25-1.25-.834L.833 58.75C0 58.75 0 59.167 0 60c.417 13.75 7.083 20.417 19.583 20.417 15 0 20-7.917 20-23.334 0-13.75-4.166-19.166-14.166-23.333zM104.583.833H96.25c-.833 0-1.25.417-1.25 1.25V56.25h-.417L80 2.083c-.417-.833-.833-1.25-1.667-1.25H66.25c-.833 0-1.25.417-1.25 1.25v75.834c0 .833.417 1.25 1.25 1.25h8.333c.834 0 1.25-.417 1.25-1.25V23.75h.834l15 54.167c.416.833.833 1.25 1.666 1.25h11.25c.834 0 1.25-.417 1.25-1.25V2.083c0-.416-.833-1.25-1.25-1.25z" fill="#fff"/></svg>