<svg version="1.1" id="Layer_1" xmlns="http://www.w3.org/2000/svg" x="0" y="0" viewBox="0 0 335.3 80" xml:space="preserve"><style>.st0{fill:#fff}</style><path class="st0" d="M68.7 0H11.3C5.1 0 0 5.1 0 11.3v57.4C0 74.9 5.1 80 11.3 80h57.4C74.9 80 80 74.9 80 68.7V11.3C80 5.1 74.9 0 68.7 0zM40.4 63c-3.5 3.4-7.8 5.2-12.9 5.2-3.9 0-8.2-1.2-12.7-3.5v-13c4.1 3.8 7.9 5.7 11.5 5.7 1.8 0 3.4-.6 4.7-1.8 1.3-1.2 2-2.6 2-4.3 0-1.4-.5-2.6-1.4-3.6-1-1.1-2.7-2.3-5.4-3.6-3.7-1.8-6.5-3.9-8.5-6.1-2-2.2-3-5.1-3-8.5 0-4.4 1.5-8.1 4.6-11.1s7.1-4.5 12.2-4.5c3.5 0 7.1.9 10.8 2.8v12.6c-3.3-3.2-6.5-4.8-9.6-4.8-1.5 0-2.8.5-3.9 1.4-1.1.9-1.7 2-1.7 3.3s.5 2.3 1.4 3.2 2.5 1.9 4.9 3c3.9 1.8 6.9 3.8 9 6 2 2.3 3.1 5.4 3.1 9.2.1 4.8-1.6 9-5.1 12.4zm23.5 4.4h-12v-36s1.6 2.2 6.1 2.2 5.9-2.2 5.9-2.2v36zm-1.4-42.7c-1.3 1.2-2.8 1.8-4.5 1.8-1.8 0-3.3-.6-4.6-1.9-1.2-1.3-1.9-2.8-1.9-4.5 0-1.8.6-3.3 1.9-4.5s2.8-1.9 4.5-1.9c1.6 0 3.1.6 4.5 1.8 1.3 1.2 2 2.7 2 4.6 0 1.9-.6 3.4-1.9 4.6zM113 16.5c-.5-.6-1.2-1.2-2.1-1.6s-1.8-.6-2.7-.6c-.5 0-1.1.1-1.6.2s-1 .3-1.5.6c-.4.3-.8.6-1.1 1.1-.3.4-.4 1-.4 1.6s.1 1.1.4 1.5c.2.4.6.8 1 1.1.4.3.9.5 1.5.8.6.2 1.3.4 2 .7.8.3 1.7.6 2.6.9.9.3 1.7.8 2.4 1.3.7.6 1.3 1.3 1.8 2.1s.7 1.9.7 3.2c0 1.4-.3 2.6-.8 3.6s-1.2 1.9-2 2.6c-.8.7-1.8 1.2-3 1.5s-2.3.5-3.6.5c-1.7 0-3.3-.3-4.9-.9-1.6-.6-2.9-1.5-3.9-2.7l3.3-3.1c.6.9 1.5 1.6 2.5 2.1 1.1.5 2.1.8 3.1.8.5 0 1.1-.1 1.6-.2.6-.1 1.1-.4 1.5-.7s.8-.7 1.1-1.2.4-1.1.4-1.8-.2-1.2-.5-1.7c-.3-.4-.7-.8-1.3-1.2-.5-.3-1.2-.6-1.9-.9-.7-.2-1.5-.5-2.3-.8-.8-.2-1.6-.5-2.3-.9-.8-.3-1.5-.8-2.1-1.3-.6-.6-1.1-1.2-1.5-2.1-.4-.8-.6-1.8-.6-3 0-1.3.3-2.4.8-3.4.5-.9 1.3-1.7 2.1-2.3.9-.6 1.9-1.1 3-1.4s2.3-.5 3.4-.5c1.3 0 2.6.2 4 .7 1.3.5 2.5 1.2 3.5 2.1l-2.6 3.3zM140.9 18.9c1.1 0 2.1.2 2.9.6.8.4 1.5.9 2 1.6s.9 1.4 1.1 2.3.4 1.7.4 2.6v10.9H143v-9.7c0-.5 0-1-.1-1.6s-.2-1.1-.5-1.5c-.2-.4-.6-.8-1-1.1s-1-.4-1.7-.4-1.3.1-1.7.4c-.5.3-.9.7-1.2 1.1-.3.5-.5 1-.7 1.5-.1.6-.2 1.1-.2 1.7v9.5h-4.4V26.3c0-1.1-.3-2-.8-2.7s-1.3-1.1-2.5-1.1c-.7 0-1.2.1-1.7.4-.5.3-.9.6-1.2 1.1-.3.4-.5.9-.7 1.5s-.2 1.1-.2 1.7v9.6H120V19.4h4.2v2.8h.1c.2-.4.5-.8.8-1.2.3-.4.7-.7 1.2-1.1.4-.3 1-.6 1.5-.7.6-.2 1.2-.3 1.9-.3 1.4 0 2.5.3 3.4.9s1.6 1.4 2.1 2.4c.6-1.1 1.4-1.9 2.3-2.5 1-.5 2.1-.8 3.4-.8zM162.9 34.7h-.1c-.4.8-1.1 1.4-2.1 1.9s-2.1.7-3.3.7c-.7 0-1.4-.1-2.2-.3s-1.5-.5-2.1-.9-1.2-1-1.6-1.7c-.4-.7-.6-1.5-.6-2.6 0-1.3.4-2.4 1.1-3.1.7-.8 1.7-1.4 2.9-1.8 1.2-.4 2.5-.7 3.9-.8s2.8-.2 4.2-.2v-.4c0-1.1-.4-1.9-1.2-2.4s-1.7-.8-2.8-.8c-.9 0-1.8.2-2.7.6-.9.4-1.6.9-2.1 1.4l-2.3-2.7c1-.9 2.1-1.6 3.4-2.1 1.3-.5 2.6-.7 3.9-.7 1.6 0 2.8.2 3.8.7 1 .4 1.8 1 2.4 1.7.6.7 1 1.5 1.2 2.4.2.9.3 1.7.3 2.6v10.6h-4.1v-2.1h.1zm-.1-5.8h-1c-.7 0-1.4 0-2.2.1s-1.5.2-2.1.4c-.7.2-1.2.5-1.6.9-.4.4-.7.9-.7 1.5 0 .4.1.8.3 1 .2.3.4.5.7.7s.6.3 1 .4.7.1 1.1.1c1.5 0 2.6-.4 3.4-1.2s1.2-1.9 1.2-3.3l-.1-.6zM171.7 11.3h4.4v25.6h-4.4V11.3zM180.9 11.3h4.4v25.6h-4.4V11.3zM99.8 44.2h4.6V69h-4.6V44.2zM130.3 51c1.1 0 2.1.2 2.9.6.8.4 1.5.9 2 1.6.5.7.9 1.4 1.1 2.3.2.8.4 1.7.4 2.6V69h-4.4v-9.7c0-.5 0-1-.1-1.6s-.2-1.1-.5-1.5c-.2-.4-.6-.8-1-1.1-.4-.3-1-.4-1.7-.4s-1.3.1-1.7.4c-.5.3-.9.7-1.2 1.1-.3.5-.5 1-.7 1.5-.1.6-.2 1.1-.2 1.7V69h-4.4V58.5c0-1.1-.3-2-.8-2.7s-1.3-1.1-2.5-1.1c-.7 0-1.2.1-1.7.4s-.9.6-1.2 1.1-.5.9-.7 1.5-.2 1.1-.2 1.7V69h-4.4V51.5h4.2v2.8h.1c.2-.4.5-.8.8-1.2s.7-.7 1.2-1.1c.4-.3 1-.6 1.5-.7.6-.2 1.2-.3 1.9-.3 1.4 0 2.5.3 3.4.9.9.6 1.6 1.4 2.1 2.4.6-1.1 1.4-1.9 2.3-2.5 1.1-.5 2.2-.8 3.5-.8zM145.6 51.5V54h.1c.2-.3.5-.7.9-1 .4-.4.8-.7 1.3-.9.5-.3 1.1-.5 1.7-.7.6-.2 1.4-.3 2.2-.3 1.2 0 2.4.2 3.4.7s1.9 1.1 2.7 1.9c.8.8 1.3 1.8 1.7 2.9s.6 2.3.6 3.6c0 1.3-.2 2.5-.6 3.6-.4 1.1-1 2.1-1.7 2.9s-1.6 1.5-2.7 2-2.3.7-3.6.7c-1.2 0-2.4-.3-3.4-.8s-1.8-1.2-2.4-2.1h-.1v11.1h-4.4V51.5h4.3zm10.2 8.7c0-.7-.1-1.4-.3-2-.2-.7-.5-1.3-.9-1.8s-.9-1-1.6-1.3c-.6-.3-1.4-.5-2.2-.5s-1.5.2-2.1.5-1.2.8-1.6 1.3c-.4.5-.8 1.1-1 1.8-.2.7-.3 1.4-.3 2 0 .7.1 1.4.3 2 .2.7.6 1.3 1 1.8s1 1 1.6 1.3 1.3.5 2.1.5 1.6-.2 2.2-.5c.6-.3 1.2-.8 1.6-1.3.4-.5.7-1.1.9-1.8.2-.6.3-1.3.3-2zM164.1 51.5h4.2v2.9h.1c.5-1 1.2-1.8 2-2.5.9-.6 1.9-.9 3.1-.9h.5c.2 0 .4 0 .5.1v4c-.3-.1-.5-.1-.7-.1h-.6c-1 0-1.8.2-2.4.5-.6.4-1.1.8-1.4 1.3-.3.5-.6 1-.7 1.6-.1.5-.2 1-.2 1.3V69h-4.4V51.5zM175.9 60.2c0-1.4.2-2.6.7-3.8.5-1.1 1.2-2.1 2-2.9.8-.8 1.9-1.4 3-1.9 1.2-.4 2.4-.7 3.7-.7s2.5.2 3.7.7c1.2.4 2.2 1.1 3 1.9s1.5 1.8 2 2.9.7 2.4.7 3.8-.2 2.6-.7 3.8c-.5 1.1-1.2 2.1-2 2.9s-1.9 1.5-3 1.9c-1.2.5-2.4.7-3.7.7s-2.5-.2-3.7-.7-2.2-1.1-3-1.9-1.5-1.8-2-2.9c-.4-1.1-.7-2.4-.7-3.8zm4.5 0c0 .7.1 1.4.3 2 .2.7.5 1.3.9 1.8s.9 1 1.6 1.3c.6.3 1.4.5 2.3.5s1.6-.2 2.3-.5c.6-.3 1.2-.8 1.6-1.3.4-.5.7-1.1.9-1.8.2-.7.3-1.4.3-2 0-.7-.1-1.4-.3-2-.2-.7-.5-1.3-.9-1.8s-.9-1-1.6-1.3c-.6-.3-1.4-.5-2.3-.5s-1.6.2-2.3.5c-.6.3-1.2.8-1.6 1.3-.4.5-.7 1.1-.9 1.8s-.3 1.3-.3 2zM195.6 51.5h4.8l4.6 12.7h.1l4.6-12.7h4.6l-7 17.5h-4.7l-7-17.5zM232.7 60.5v1.2h-13.3c0 .6.2 1.2.5 1.7s.6 1 1.1 1.3c.5.4 1 .7 1.6.9.6.2 1.2.3 1.8.3 1.1 0 2-.2 2.8-.6s1.4-1 1.9-1.7l2.9 2.3c-1.7 2.3-4.2 3.5-7.5 3.5-1.4 0-2.6-.2-3.7-.6-1.1-.4-2.1-1-3-1.8-.8-.8-1.5-1.7-2-2.9-.5-1.1-.7-2.4-.7-3.8s.2-2.7.7-3.8c.5-1.2 1.1-2.1 1.9-2.9.8-.8 1.8-1.4 2.9-1.9 1.1-.4 2.3-.7 3.7-.7 1.2 0 2.3.2 3.4.6 1 .4 1.9 1 2.7 1.8.8.8 1.3 1.8 1.8 2.9.3 1.2.5 2.6.5 4.2zm-4.4-2c0-.6-.1-1.1-.2-1.6-.2-.5-.4-1-.7-1.3-.3-.4-.8-.7-1.3-.9-.5-.2-1.1-.3-1.8-.3-1.3 0-2.4.4-3.3 1.2-.9.8-1.4 1.8-1.5 3l8.8-.1zM257.4 51c1.1 0 2.1.2 2.9.6.8.4 1.5.9 2 1.6.5.7.9 1.4 1.1 2.3.2.8.4 1.7.4 2.6V69h-4.4v-9.7c0-.5 0-1-.1-1.6s-.2-1.1-.5-1.5c-.2-.4-.6-.8-1-1.1-.4-.3-1-.4-1.7-.4s-1.3.1-1.7.4c-.5.3-.9.7-1.2 1.1s-.5 1-.7 1.5c-.1.6-.2 1.1-.2 1.7V69h-4.4V58.5c0-1.1-.3-2-.8-2.7s-1.3-1.1-2.5-1.1c-.7 0-1.2.1-1.7.4s-.9.6-1.2 1.1c-.3.4-.5.9-.7 1.5s-.2 1.1-.2 1.7V69h-4.4V51.5h4.2v2.8h.1c.2-.4.5-.8.8-1.2s.7-.7 1.2-1.1c.4-.3 1-.6 1.5-.7.6-.2 1.2-.3 1.9-.3 1.4 0 2.5.3 3.4.9.9.6 1.6 1.4 2.1 2.4.6-1.1 1.4-1.9 2.3-2.5 1-.5 2.2-.8 3.5-.8zM285.2 60.5v1.2h-13.3c0 .6.2 1.2.5 1.7s.6 1 1.1 1.3c.5.4 1 .7 1.6.9.6.2 1.2.3 1.8.3 1.1 0 2-.2 2.8-.6s1.4-1 1.9-1.7l2.9 2.3c-1.7 2.3-4.2 3.5-7.5 3.5-1.4 0-2.6-.2-3.7-.6s-2.1-1-3-1.8c-.8-.8-1.5-1.7-2-2.9-.5-1.1-.7-2.4-.7-3.8s.2-2.7.7-3.8c.5-1.2 1.1-2.1 1.9-2.9.8-.8 1.8-1.4 2.9-1.9 1.1-.4 2.3-.7 3.7-.7 1.2 0 2.3.2 3.4.6 1 .4 1.9 1 2.7 1.8.8.8 1.3 1.8 1.8 2.9.3 1.2.5 2.6.5 4.2zm-4.4-2c0-.6-.1-1.1-.2-1.6-.2-.5-.4-1-.7-1.3-.3-.4-.8-.7-1.3-.9-.5-.2-1.1-.3-1.8-.3-1.3 0-2.4.4-3.3 1.2-.9.8-1.4 1.8-1.5 3l8.8-.1zM289 51.5h4.2v2.8h.1c.4-.9 1.1-1.6 2-2.3 1-.7 2.1-1 3.4-1 1.1 0 2.1.2 2.9.6.8.4 1.5.9 2 1.6.5.7.9 1.4 1.1 2.3.2.8.4 1.7.4 2.6V69h-4.4v-9.7c0-.5 0-1-.1-1.6s-.2-1.1-.5-1.5c-.2-.4-.6-.8-1-1.1-.4-.3-1-.4-1.7-.4s-1.3.1-1.8.4-.9.6-1.3 1.1-.6.9-.7 1.5c-.2.6-.3 1.1-.3 1.7V69H289V51.5zM307.3 55v-3.5h3.1v-5.1h4.3v5.1h4.4V55h-4.4v8.1c0 .8.1 1.4.4 1.9s.9.8 1.9.8c.3 0 .6 0 .9-.1l.9-.3.1 3.4c-.4.1-.9.3-1.4.3-.5.1-1 .1-1.5.1-1.2 0-2.1-.2-2.8-.5-.7-.3-1.3-.8-1.7-1.3-.4-.6-.7-1.2-.9-2-.2-.7-.2-1.5-.2-2.4v-8h-3.1zM332.3 56.2c-.4-.5-.9-1-1.6-1.3-.7-.4-1.4-.6-2.2-.6-.7 0-1.3.1-1.9.4s-.9.8-.9 1.5.3 1.2 1 1.4c.6.3 1.6.6 2.8.9.7.1 1.3.3 2 .6.7.2 1.3.6 1.8 1s1 .9 1.3 1.5.5 1.3.5 2.2c0 1.1-.2 2-.6 2.7s-.9 1.3-1.6 1.8-1.4.8-2.3 1-1.8.3-2.7.3c-1.4 0-2.7-.2-4-.7s-2.4-1.2-3.2-2.1l2.9-2.7c.5.6 1.1 1.2 1.9 1.6s1.6.6 2.6.6c.3 0 .6 0 1-.1s.6-.2.9-.3c.3-.2.5-.4.7-.6.2-.3.3-.6.3-1 0-.7-.3-1.2-1-1.6-.7-.3-1.7-.6-3-.9-.7-.1-1.3-.3-1.9-.6-.6-.2-1.2-.5-1.7-.9s-.9-.8-1.2-1.4c-.3-.6-.4-1.2-.4-2.1 0-1 .2-1.8.6-2.5.4-.7.9-1.3 1.6-1.7s1.4-.8 2.2-1c.8-.2 1.7-.3 2.5-.3 1.3 0 2.5.2 3.7.7 1.2.4 2.2 1.1 2.9 2l-3 2.2z"/></svg>