<svg viewBox="0 0 335.3 80" xmlns="http://www.w3.org/2000/svg"><path d="m68.7 0h-57.4c-6.2 0-11.3 5.1-11.3 11.3v57.4c0 6.2 5.1 11.3 11.3 11.3h57.4c6.2 0 11.3-5.1 11.3-11.3v-57.4c0-6.2-5.1-11.3-11.3-11.3zm-28.3 63c-3.5 3.4-7.8 5.2-12.9 5.2-3.9 0-8.2-1.2-12.7-3.5v-13c4.1 3.8 7.9 5.7 11.5 5.7 1.8 0 3.4-.6 4.7-1.8s2-2.6 2-4.3c0-1.4-.5-2.6-1.4-3.6-1-1.1-2.7-2.3-5.4-3.6-3.7-1.8-6.5-3.9-8.5-6.1s-3-5.1-3-8.5c0-4.4 1.5-8.1 4.6-11.1s7.1-4.5 12.2-4.5c3.5 0 7.1.9 10.8 2.8v12.6c-3.3-3.2-6.5-4.8-9.6-4.8-1.5 0-2.8.5-3.9 1.4s-1.7 2-1.7 3.3.5 2.3 1.4 3.2 2.5 1.9 4.9 3c3.9 1.8 6.9 3.8 9 6 2 2.3 3.1 5.4 3.1 9.2.1 4.8-1.6 9-5.1 12.4zm23.5 4.4h-12v-36s1.6 2.2 6.1 2.2 5.9-2.2 5.9-2.2zm-1.4-42.7c-1.3 1.2-2.8 1.8-4.5 1.8-1.8 0-3.3-.6-4.6-1.9-1.2-1.3-1.9-2.8-1.9-4.5 0-1.8.6-3.3 1.9-4.5s2.8-1.9 4.5-1.9c1.6 0 3.1.6 4.5 1.8 1.3 1.2 2 2.7 2 4.6s-.6 3.4-1.9 4.6zm50.5-8.2c-.5-.6-1.2-1.2-2.1-1.6s-1.8-.6-2.7-.6c-.5 0-1.1.1-1.6.2s-1 .3-1.5.6c-.4.3-.8.6-1.1 1.1-.3.4-.4 1-.4 1.6s.1 1.1.4 1.5c.2.4.6.8 1 1.1s.9.5 1.5.8c.6.2 1.3.4 2 .7.8.3 1.7.6 2.6.9s1.7.8 2.4 1.3c.7.6 1.3 1.3 1.8 2.1s.7 1.9.7 3.2c0 1.4-.3 2.6-.8 3.6s-1.2 1.9-2 2.6-1.8 1.2-3 1.5-2.3.5-3.6.5c-1.7 0-3.3-.3-4.9-.9s-2.9-1.5-3.9-2.7l3.3-3.1c.6.9 1.5 1.6 2.5 2.1 1.1.5 2.1.8 3.1.8.5 0 1.1-.1 1.6-.2.6-.1 1.1-.4 1.5-.7s.8-.7 1.1-1.2.4-1.1.4-1.8-.2-1.2-.5-1.7c-.3-.4-.7-.8-1.3-1.2-.5-.3-1.2-.6-1.9-.9-.7-.2-1.5-.5-2.3-.8-.8-.2-1.6-.5-2.3-.9-.8-.3-1.5-.8-2.1-1.3-.6-.6-1.1-1.2-1.5-2.1-.4-.8-.6-1.8-.6-3 0-1.3.3-2.4.8-3.4.5-.9 1.3-1.7 2.1-2.3.9-.6 1.9-1.1 3-1.4s2.3-.5 3.4-.5c1.3 0 2.6.2 4 .7 1.3.5 2.5 1.2 3.5 2.1zm27.9 2.4c1.1 0 2.1.2 2.9.6s1.5.9 2 1.6.9 1.4 1.1 2.3.4 1.7.4 2.6v10.9h-4.3v-9.7c0-.5 0-1-.1-1.6s-.2-1.1-.5-1.5c-.2-.4-.6-.8-1-1.1s-1-.4-1.7-.4-1.3.1-1.7.4c-.5.3-.9.7-1.2 1.1-.3.5-.5 1-.7 1.5-.1.6-.2 1.1-.2 1.7v9.5h-4.4v-10.5c0-1.1-.3-2-.8-2.7s-1.3-1.1-2.5-1.1c-.7 0-1.2.1-1.7.4s-.9.6-1.2 1.1c-.3.4-.5.9-.7 1.5s-.2 1.1-.2 1.7v9.6h-4.4v-17.4h4.2v2.8h.1c.2-.4.5-.8.8-1.2s.7-.7 1.2-1.1c.4-.3 1-.6 1.5-.7.6-.2 1.2-.3 1.9-.3 1.4 0 2.5.3 3.4.9s1.6 1.4 2.1 2.4c.6-1.1 1.4-1.9 2.3-2.5 1-.5 2.1-.8 3.4-.8zm22 15.8h-.1c-.4.8-1.1 1.4-2.1 1.9s-2.1.7-3.3.7c-.7 0-1.4-.1-2.2-.3s-1.5-.5-2.1-.9-1.2-1-1.6-1.7-.6-1.5-.6-2.6c0-1.3.4-2.4 1.1-3.1.7-.8 1.7-1.4 2.9-1.8s2.5-.7 3.9-.8 2.8-.2 4.2-.2v-.4c0-1.1-.4-1.9-1.2-2.4s-1.7-.8-2.8-.8c-.9 0-1.8.2-2.7.6s-1.6.9-2.1 1.4l-2.3-2.7c1-.9 2.1-1.6 3.4-2.1s2.6-.7 3.9-.7c1.6 0 2.8.2 3.8.7 1 .4 1.8 1 2.4 1.7s1 1.5 1.2 2.4.3 1.7.3 2.6v10.6h-4.1v-2.1zm-.1-5.8h-1c-.7 0-1.4 0-2.2.1s-1.5.2-2.1.4c-.7.2-1.2.5-1.6.9s-.7.9-.7 1.5c0 .4.1.8.3 1 .2.3.4.5.7.7s.6.3 1 .4.7.1 1.1.1c1.5 0 2.6-.4 3.4-1.2s1.2-1.9 1.2-3.3zm8.9-17.6h4.4v25.6h-4.4zm9.2 0h4.4v25.6h-4.4zm-81.1 32.9h4.6v24.8h-4.6zm30.5 6.8c1.1 0 2.1.2 2.9.6s1.5.9 2 1.6.9 1.4 1.1 2.3c.2.8.4 1.7.4 2.6v10.9h-4.4v-9.7c0-.5 0-1-.1-1.6s-.2-1.1-.5-1.5c-.2-.4-.6-.8-1-1.1s-1-.4-1.7-.4-1.3.1-1.7.4c-.5.3-.9.7-1.2 1.1-.3.5-.5 1-.7 1.5-.1.6-.2 1.1-.2 1.7v9.6h-4.4v-10.5c0-1.1-.3-2-.8-2.7s-1.3-1.1-2.5-1.1c-.7 0-1.2.1-1.7.4s-.9.6-1.2 1.1-.5.9-.7 1.5-.2 1.1-.2 1.7v9.6h-4.4v-17.5h4.2v2.8h.1c.2-.4.5-.8.8-1.2s.7-.7 1.2-1.1c.4-.3 1-.6 1.5-.7.6-.2 1.2-.3 1.9-.3 1.4 0 2.5.3 3.4.9s1.6 1.4 2.1 2.4c.6-1.1 1.4-1.9 2.3-2.5 1.1-.5 2.2-.8 3.5-.8zm15.3.5v2.5h.1c.2-.3.5-.7.9-1 .4-.4.8-.7 1.3-.9.5-.3 1.1-.5 1.7-.7s1.4-.3 2.2-.3c1.2 0 2.4.2 3.4.7s1.9 1.1 2.7 1.9 1.3 1.8 1.7 2.9.6 2.3.6 3.6-.2 2.5-.6 3.6-1 2.1-1.7 2.9-1.6 1.5-2.7 2-2.3.7-3.6.7c-1.2 0-2.4-.3-3.4-.8s-1.8-1.2-2.4-2.1h-.1v11.1h-4.4v-26.1zm10.2 8.7c0-.7-.1-1.4-.3-2-.2-.7-.5-1.3-.9-1.8s-.9-1-1.6-1.3c-.6-.3-1.4-.5-2.2-.5s-1.5.2-2.1.5-1.2.8-1.6 1.3-.8 1.1-1 1.8-.3 1.4-.3 2c0 .7.1 1.4.3 2 .2.7.6 1.3 1 1.8s1 1 1.6 1.3 1.3.5 2.1.5 1.6-.2 2.2-.5 1.2-.8 1.6-1.3.7-1.1.9-1.8c.2-.6.3-1.3.3-2zm8.3-8.7h4.2v2.9h.1c.5-1 1.2-1.8 2-2.5.9-.6 1.9-.9 3.1-.9h.5c.2 0 .4 0 .5.1v4c-.3-.1-.5-.1-.7-.1h-.6c-1 0-1.8.2-2.4.5-.6.4-1.1.8-1.4 1.3s-.6 1-.7 1.6c-.1.5-.2 1-.2 1.3v9.3h-4.4zm11.8 8.7c0-1.4.2-2.6.7-3.8.5-1.1 1.2-2.1 2-2.9s1.9-1.4 3-1.9c1.2-.4 2.4-.7 3.7-.7s2.5.2 3.7.7c1.2.4 2.2 1.1 3 1.9s1.5 1.8 2 2.9.7 2.4.7 3.8-.2 2.6-.7 3.8c-.5 1.1-1.2 2.1-2 2.9s-1.9 1.5-3 1.9c-1.2.5-2.4.7-3.7.7s-2.5-.2-3.7-.7-2.2-1.1-3-1.9-1.5-1.8-2-2.9c-.4-1.1-.7-2.4-.7-3.8zm4.5 0c0 .7.1 1.4.3 2 .2.7.5 1.3.9 1.8s.9 1 1.6 1.3c.6.3 1.4.5 2.3.5s1.6-.2 2.3-.5c.6-.3 1.2-.8 1.6-1.3s.7-1.1.9-1.8.3-1.4.3-2c0-.7-.1-1.4-.3-2-.2-.7-.5-1.3-.9-1.8s-.9-1-1.6-1.3c-.6-.3-1.4-.5-2.3-.5s-1.6.2-2.3.5c-.6.3-1.2.8-1.6 1.3s-.7 1.1-.9 1.8-.3 1.3-.3 2zm15.2-8.7h4.8l4.6 12.7h.1l4.6-12.7h4.6l-7 17.5h-4.7zm37.1 9v1.2h-13.3c0 .6.2 1.2.5 1.7s.6 1 1.1 1.3c.5.4 1 .7 1.6.9s1.2.3 1.8.3c1.1 0 2-.2 2.8-.6s1.4-1 1.9-1.7l2.9 2.3c-1.7 2.3-4.2 3.5-7.5 3.5-1.4 0-2.6-.2-3.7-.6s-2.1-1-3-1.8c-.8-.8-1.5-1.7-2-2.9-.5-1.1-.7-2.4-.7-3.8s.2-2.7.7-3.8c.5-1.2 1.1-2.1 1.9-2.9s1.8-1.4 2.9-1.9c1.1-.4 2.3-.7 3.7-.7 1.2 0 2.3.2 3.4.6 1 .4 1.9 1 2.7 1.8s1.3 1.8 1.8 2.9c.3 1.2.5 2.6.5 4.2zm-4.4-2c0-.6-.1-1.1-.2-1.6-.2-.5-.4-1-.7-1.3-.3-.4-.8-.7-1.3-.9s-1.1-.3-1.8-.3c-1.3 0-2.4.4-3.3 1.2s-1.4 1.8-1.5 3zm29.1-7.5c1.1 0 2.1.2 2.9.6s1.5.9 2 1.6.9 1.4 1.1 2.3c.2.8.4 1.7.4 2.6v10.9h-4.4v-9.7c0-.5 0-1-.1-1.6s-.2-1.1-.5-1.5c-.2-.4-.6-.8-1-1.1s-1-.4-1.7-.4-1.3.1-1.7.4c-.5.3-.9.7-1.2 1.1s-.5 1-.7 1.5c-.1.6-.2 1.1-.2 1.7v9.6h-4.4v-10.5c0-1.1-.3-2-.8-2.7s-1.3-1.1-2.5-1.1c-.7 0-1.2.1-1.7.4s-.9.6-1.2 1.1c-.3.4-.5.9-.7 1.5s-.2 1.1-.2 1.7v9.6h-4.4v-17.5h4.2v2.8h.1c.2-.4.5-.8.8-1.2s.7-.7 1.2-1.1c.4-.3 1-.6 1.5-.7.6-.2 1.2-.3 1.9-.3 1.4 0 2.5.3 3.4.9s1.6 1.4 2.1 2.4c.6-1.1 1.4-1.9 2.3-2.5 1-.5 2.2-.8 3.5-.8zm27.8 9.5v1.2h-13.3c0 .6.2 1.2.5 1.7s.6 1 1.1 1.3c.5.4 1 .7 1.6.9s1.2.3 1.8.3c1.1 0 2-.2 2.8-.6s1.4-1 1.9-1.7l2.9 2.3c-1.7 2.3-4.2 3.5-7.5 3.5-1.4 0-2.6-.2-3.7-.6s-2.1-1-3-1.8c-.8-.8-1.5-1.7-2-2.9-.5-1.1-.7-2.4-.7-3.8s.2-2.7.7-3.8c.5-1.2 1.1-2.1 1.9-2.9s1.8-1.4 2.9-1.9c1.1-.4 2.3-.7 3.7-.7 1.2 0 2.3.2 3.4.6 1 .4 1.9 1 2.7 1.8s1.3 1.8 1.8 2.9c.3 1.2.5 2.6.5 4.2zm-4.4-2c0-.6-.1-1.1-.2-1.6-.2-.5-.4-1-.7-1.3-.3-.4-.8-.7-1.3-.9s-1.1-.3-1.8-.3c-1.3 0-2.4.4-3.3 1.2s-1.4 1.8-1.5 3zm8.2-7h4.2v2.8h.1c.4-.9 1.1-1.6 2-2.3 1-.7 2.1-1 3.4-1 1.1 0 2.1.2 2.9.6s1.5.9 2 1.6.9 1.4 1.1 2.3c.2.8.4 1.7.4 2.6v10.9h-4.4v-9.7c0-.5 0-1-.1-1.6s-.2-1.1-.5-1.5c-.2-.4-.6-.8-1-1.1s-1-.4-1.7-.4-1.3.1-1.8.4-.9.6-1.3 1.1-.6.9-.7 1.5c-.2.6-.3 1.1-.3 1.7v9.6h-4.3zm18.3 3.5v-3.5h3.1v-5.1h4.3v5.1h4.4v3.5h-4.4v8.1c0 .8.1 1.4.4 1.9s.9.8 1.9.8c.3 0 .6 0 .9-.1l.9-.3.1 3.4c-.4.1-.9.3-1.4.3-.5.1-1 .1-1.5.1-1.2 0-2.1-.2-2.8-.5s-1.3-.8-1.7-1.3c-.4-.6-.7-1.2-.9-2-.2-.7-.2-1.5-.2-2.4v-8zm25 1.2c-.4-.5-.9-1-1.6-1.3-.7-.4-1.4-.6-2.2-.6-.7 0-1.3.1-1.9.4s-.9.8-.9 1.5.3 1.2 1 1.4c.6.3 1.6.6 2.8.9.7.1 1.3.3 2 .6.7.2 1.3.6 1.8 1s1 .9 1.3 1.5.5 1.3.5 2.2c0 1.1-.2 2-.6 2.7s-.9 1.3-1.6 1.8-1.4.8-2.3 1-1.8.3-2.7.3c-1.4 0-2.7-.2-4-.7s-2.4-1.2-3.2-2.1l2.9-2.7c.5.6 1.1 1.2 1.9 1.6s1.6.6 2.6.6c.3 0 .6 0 1-.1s.6-.2.9-.3c.3-.2.5-.4.7-.6.2-.3.3-.6.3-1 0-.7-.3-1.2-1-1.6-.7-.3-1.7-.6-3-.9-.7-.1-1.3-.3-1.9-.6-.6-.2-1.2-.5-1.7-.9s-.9-.8-1.2-1.4-.4-1.2-.4-2.1c0-1 .2-1.8.6-2.5s.9-1.3 1.6-1.7 1.4-.8 2.2-1 1.7-.3 2.5-.3c1.3 0 2.5.2 3.7.7 1.2.4 2.2 1.1 2.9 2z" fill="#fff"/></svg>