<svg xmlns="http://www.w3.org/2000/svg" width="637.807" height="70.864"><path fill="#fff" d="M269.292 70.864h14.173V56.691h-14.173v14.173zm42.671 0h42.521V56.691h-42.521v14.173zM0 14.173V42.52h42.52v14.172H0v14.173h56.694v-42.52H14.173V14.173H0zm127.563 0v42.519H85.04v14.173h56.697V14.173h-14.174zm325.992 56.691h14.173V14.173h-14.173v56.691zM14.173 14.173h42.521V0H14.173v14.173zm56.694 42.518H85.04V0H70.867v56.691zM155.911 0v70.864h14.173V14.173h28.346v56.691h14.173V14.173h28.342v56.691h14.174V0h-99.208zm141.878 0v56.691h14.174V14.173h42.52V0h-56.694zm127.42 0v56.691h-42.515l-.01-42.519H368.51l.01 56.691h70.861V0h-14.172zm42.519 0v14.173h28.349v42.519h14.173V14.173h28.342v56.691h14.173V0h-85.037zm99.218 0v70.864h70.861V14.173h-14.175v42.519h-42.523l.009-42.519h42.512V0h-56.684z"/></svg>