<svg height="70.864" width="637.807" xmlns="http://www.w3.org/2000/svg"><path d="m269.292 70.864h14.173v-14.173h-14.173zm42.671 0h42.521v-14.173h-42.521zm-311.963-56.691v28.347h42.52v14.172h-42.52v14.173h56.694v-42.52h-42.521v-14.172zm127.563 0v42.519h-42.523v14.173h56.697v-56.692zm325.992 56.691h14.173v-56.691h-14.173zm-439.382-56.691h42.521v-14.173h-42.521zm56.694 42.518h14.173v-56.691h-14.173zm85.044-56.691v70.864h14.173v-56.691h28.346v56.691h14.173v-56.691h28.342v56.691h14.174v-70.864zm141.878 0v56.691h14.174v-42.518h42.52v-14.173zm127.42 0v56.691h-42.515l-.01-42.519h-14.174l.01 56.691h70.861v-70.863zm42.519 0v14.173h28.349v42.519h14.173v-42.519h28.342v56.691h14.173v-70.864zm99.218 0v70.864h70.861v-56.691h-14.175v42.519h-42.523l.009-42.519h42.512v-14.173z" fill="#fff"/></svg>