<svg version="1.1" id="layer" xmlns="http://www.w3.org/2000/svg" x="0" y="0" viewBox="0 0 600 135.6" xml:space="preserve"><style>.st0{fill:#fff}</style><path class="st0" d="M88.9 22.5C88.9 34.9 78.8 45 66.4 45S43.9 34.9 43.9 22.5 54 0 66.4 0c12.5 0 22.5 10.1 22.5 22.5"/><path class="st0" d="M.4 14.5c-2.2-9.3 5.7-9.7 7.5-5.3C29 50.4 56.2 99.7 66.7 99.7s37.5-49.5 58.2-90.5c1.8-4.5 9.9-3.4 7.7 4.9-16.8 50.7-42.8 116.2-65.9 116.2S17.5 65.3.4 14.5m196.4 63.1c0-16-10.3-22.7-22.3-22.7s-22.3 6.7-22.3 22.7c0 14.6 8.1 23.3 22.3 23.3 14.2 0 22.3-8.9 22.3-23.3m-60.7.2c0-18.3 11-36.5 38.3-36.5s38.3 18.1 38.3 36.5c0 27.2-19.5 36.5-38.3 36.5s-38.3-9.3-38.3-36.5m95.6-34.2h15.6v8.5c6.5-7.3 15.9-11.2 25.6-10.8 14.2 0 26.8 5.9 26.8 26.8v43.8h-15.8V74c0-13.4-4.1-19.3-14.6-19.3-12.6 0-17.8 5.1-21.7 10.1v47.1h-15.7V43.7h-.2v-.1zm143.4 34c-8.3.3-16.6 1.4-24.7 3.4-9.9 2.4-14.4 5.5-14.6 11.6s3.7 9.5 11.4 9.5c12 0 21.5-5.1 27.6-8.9V77.6h.3zm15.8 23.4c0 4.5.2 9.1 1.2 11h-16.2c-.6-2.3-.9-4.6-1-6.9-6.7 3.7-16.4 9.3-30 9.3-9.1 0-26.4-3.7-26.4-20.7 0-23.1 34.3-26.4 56.4-27.6v-3.2c0-5.1-4.7-8.9-17.8-8.9-14.6 0-17.6 5.3-18.5 9.1h-16.4c3.7-18.5 22.1-21.9 34.7-21.9 32.9 0 33.7 16 33.7 25.4v34.3h.3v.1zm74.4-34.7c0-10.3-10.5-13.2-18.9-13.2-8.5 0-18.3 3.2-18.3 13.4 0 10.7 9.9 13.4 18.1 13.4 8.2 0 19.1-3.5 19.1-13.6m-30.4 46.6c-3.7 0-9.1 1-9.1 4.9 0 5.5 7.3 6.3 19.9 6.3s25.6-1.4 25.6-6.9c0-4.7-2.8-4.5-20.3-4.3h-16.1zm53.7-58.2c-1.8-.7-3.8-1.1-5.7-1-1.8.1-3.5.5-5.1 1.4 2.1 3.4 3.2 7.4 3.2 11.4 0 18.5-16.6 25.2-34.7 25.2-4.9.1-9.8-.6-14.4-2.2-1.8 1.2-4.3 3.2-4.3 5.5s1.6 4.1 15.4 3.9h21.5c15.4.6 24.3 4.9 24.3 15.6 0 16.4-23.9 21.1-44.6 21.1-19.1 0-35.7-3.7-35.7-15.2 0-8.1 7.3-9.3 13.8-10.7v-.4c-5.9-.6-10.3-3.7-10.3-10.7s6.5-12 12-12.8v-.2c-7.3-3.8-11.8-11.5-11.4-19.7 0-20.1 18.5-24.9 35.3-24.9 12 0 18.9 3.2 23.7 6.3 2.4-2.6 7.5-7.3 14.4-7.3h2.6v14.7zm72.5 15.4c-2.4-11.6-10.3-16-21.7-16-8.3 0-17.8 2.8-21.1 16h42.8zm15.6 21.5c-1.2 5.5-10.3 22.9-35.7 22.9-24.5 0-39.1-15.4-39.1-36.7 0-19.3 12.8-36.3 38.1-36.3 25.8.2 38.1 16.2 38.1 40.8h-60c.6 4.3 3 18.5 22.5 19.3 9.9 0 16.6-4.7 18.9-10.1h17.2v.1zm9.3-53.3h2.8c1.4 0 3 .2 3 2.2s-1.8 2.2-3.6 2.2H586v-4.4zm-2.2 11.9h2.2v-5.9h2.2l3.7 5.9h2.2l-3.9-5.9c1.9 0 3.5-1.5 3.6-3.4v-.4c0-2.6-1.6-3.9-4.7-3.9H584l-.2 13.6zm-4.9-6.9c0-5.3 4.3-9.6 9.6-9.6s9.6 4.3 9.6 9.6c.3 5.3-3.7 9.8-9 10.2s-9.8-3.7-10.2-9v-1.2m-2.2 0c0 6.4 5.2 11.6 11.6 11.7 6.4 0 11.6-5.2 11.7-11.6 0-6.4-5.2-11.6-11.6-11.6-6.4-.1-11.6 5.1-11.7 11.5"/></svg>