<svg xmlns="http://www.w3.org/2000/svg" version="1.0" width="1024" height="405" viewBox="0 0 141.687 56.055"><g fill="#fff"><path d="M112.188 7.531c-.332 0-.61.117-.75.344-.145.235-.123.537.03.844l3.72 6.437c.006.013.006.02 0 .031L109.344 25.5c-.153.304-.145.609 0 .844.14.226.387.375.719.375h5.5c.822 0 1.218-.555 1.5-1.063l5.937-10.5c-.022-.036-3.781-6.594-3.781-6.594-.274-.487-.688-1.03-1.531-1.03h-5.5zm-24.22 12.032c-8.534 0-13.218 4.98-13.218 14v9.5c0 8.614 4.101 13 12.219 13 6.563 0 11.879-2.567 12.25-2.75V36.25c0-.53-.376-.906-.906-.906H87.436c-.53 0-.906.376-.906.906v4.375c0 .53.376.906.906.906H92.5c.021 0 .031.01.031.032v7.374c0 .017-.017.027-.031.032-.024.01-2.385.906-5.313.906-3.867 0-5.75-2.4-5.75-7.313v-9c0-2.553.503-4.43 1.532-5.718 1.126-1.409 2.829-2.094 5.25-2.094h1.062c3.515 0 6.23.785 7.969 1.344.27.086.517.041.688-.094.173-.137.28-.371.28-.656v-4.188c0-.473-.232-.74-.937-1.093-.898-.45-3.457-1.5-7.875-1.5H87.97zm-86.812.468c-.252 0-.448.098-.562.282-.124.198-.123.473 0 .718L9.53 37.313a.107.107 0 0 1 0 .062L.094 54.469c-.124.246-.124.52 0 .718.112.184.31.282.562.282H6.75c.697 0 .946-.391 1.219-.938l6.25-11.5c.006-.012.017-.031.031-.031.015 0 .025.019.031.031l6.281 11.5c.272.545.49.938 1.188.938h6.125c.253 0 .45-.098.563-.282a.655.655 0 0 0 .093-.343.853.853 0 0 0-.093-.375l-9.47-17.094c-.003-.006 0-.025 0-.031 0-.007-.003-.027 0-.032l8.97-16.28a.853.853 0 0 0 .093-.376.663.663 0 0 0-.093-.343c-.114-.184-.312-.282-.563-.282H21.25c-.698 0-.946.393-1.219.938l-5.75 10.687c-.006.012-.016.032-.031.032-.014 0-.025-.02-.031-.032L8.469 20.97C8.24 20.51 8 20.03 7.25 20.03H1.156zm31.813 0c-.529 0-.906.378-.907.907v33.624c0 .53.378.907.907.907h4.843c.53 0 .907-.378.907-.907V20.938c0-.53-.378-.907-.907-.907H32.97zm12.937 0c-.529 0-.937.378-.937.907v33.624c0 .53.408.907.937.907h4.844c.529 0 .906-.378.906-.907v-20.28c0-.018.015-.028.032-.032.016-.005.023.016.03.031l10.5 20.25c.217.433.553.938 1.22.938H68.5c.529 0 .906-.378.906-.907V20.938c0-.53-.377-.907-.906-.907h-4.844c-.529 0-.906.378-.906.907v20.25c0 .017-.015.027-.031.03-.017.006-.054.016-.063 0l-10.5-20.25c-.23-.456-.467-.937-1.218-.937h-5.032zM135.293 0c-.82 0-1.177.517-1.472 1.048L121.582 22.75l7.815 14.337c.273.488.694 1.048 1.536 1.048h5.494c.331 0 .59-.125.73-.351.146-.235.143-.545-.011-.85l-7.754-14.167a.032.032 0 0 1 0-.036L141.57 1.2c.152-.304.156-.614.01-.849-.14-.226-.4-.351-.73-.351h-5.557z"/></g></svg>